MusicDataSubspace:
MusicDataSubspace_Square2:
	note_type 1, QUARTER
	note G_, 2
	note_type 1, EIGHTH
	rest
	note_type 1, QUARTER
	note D_, 2
	note_type 1, EIGHTH
	rest
	note_type 1, QUARTER
	note C_, 2
	note_type 1, EIGHTH
	rest
	note E_, 2
	rest
	note_type 1, QUARTER
	note F_, 2
	note_type 1, EIGHTH
	note E_, 2
	note_type 1, QUARTER
	note D#, 2
	note_type 1, HALF_TRIPLET
	note D_, 2
	note C_, 3
	note C_, 3
	note_type 1, QUARTER
	note E_, 3
	note_type 1, EIGHTH
	note C_, 3
	note D_, 3
	rest
	note B_, 2
	rest
	note G_, 2
	rest
	note A_, 2
	note_type 1, QUARTER
	note G_, 2
	rest
	note_type 3, EIGHTH
	note G_, 3
	note F#, 3
	note F_, 3
	note D#, 3
	rest
	note E_, 3
	rest
	note G#, 2
	note A_, 2
	note C_, 3
	rest
	note A_, 2
	note C_, 3
	note D_, 3
	rest
	rest
	note G_, 3
	note F#, 3
	note F_, 3
	note D#, 3
	rest
	note E_, 3
	rest
	note C_, 4
	rest
	note C_, 4
	note_type 3, QUARTER
	note C_, 4
	rest
	rest
	note_type 3, EIGHTH
	note G_, 3
	note F#, 3
	note F_, 3
	note D#, 3
	rest
	note E_, 3
	rest
	note A_, 2
	note_type 3, SIXTEENTH
	note C_, 3
	note D_, 3
	note C_, 3
	note A_, 2
	note_type 3, EIGHTH
	note C_, 3
	rest
	note D_, 3
	note_type 3, DOTTED_QUARTER
	rest
	note_type 3, EIGHTH
	note D#, 3
	rest
	rest
	note F_, 3
	rest
	rest
	note_type 3, QUARTER
	note E_, 3
	note_type 3, DOTTED_HALF
	rest
	sound_ret

MusicDataSubspace_Square1:
	note_type 1, QUARTER
	note E_, 2
	note_type 1, EIGHTH
	rest
	note_type 1, QUARTER
	note C_, 2
	note_type 1, EIGHTH
	rest
	note_type 1, QUARTER
	note G_, 1
	note_type 1, EIGHTH
	rest
	note C_, 2
	rest
	note_type 1, QUARTER
	note D_, 2
	note_type 1, EIGHTH
	note C#, 2
	note_type 1, QUARTER
	note C_, 2
	note_type 1, HALF_TRIPLET
	note C_, 2
	note G_, 2
	note B_, 2
	note_type 1, QUARTER
	note C_, 3
	note_type 1, EIGHTH
	note A_, 2
	note B_, 2
	rest
	note G_, 2
	rest
	note E_, 2
	rest
	note F_, 2
	note_type 1, QUARTER
	note F_, 2
	rest
	note_type 3, EIGHTH
	note E_, 3
	note D#, 3
	note D_, 3
	note B_, 2
	rest
	note C_, 3
	rest
	note E_, 2
	note F_, 2
	note A_, 2
	rest
	note C_, 2
	note E_, 2
	note F_, 2
	rest
	rest
	note E_, 3
	note D#, 3
	note D_, 3
	note B_, 2
	rest
	note C_, 3
	rest
	note F_, 3
	rest
	note F_, 3
	note_type 3, QUARTER
	note F_, 3
	rest
	rest
	note_type 3, EIGHTH
	note E_, 3
	note D#, 3
	note D_, 3
	note B_, 2
	rest
	note C_, 3
	rest
	note F_, 2
	note_type 3, SIXTEENTH
	note G_, 2
	note A_, 2
	note G_, 2
	note C_, 2
	note_type 3, EIGHTH
	note E_, 2
	rest
	note F_, 2
	note_type 3, DOTTED_QUARTER
	rest
	note_type 3, EIGHTH
	note C_, 3
	rest
	rest
	note D_, 3
	rest
	rest
	note_type 3, QUARTER
	note C_, 3
	note_type 3, DOTTED_HALF
	rest

MusicDataSubspace_Triangle:
	note_type 1, QUARTER
	note C_, 4
	note_type 1, EIGHTH
	rest
	note_type 1, QUARTER
	note G_, 3
	note_type 1, EIGHTH
	rest
	note_type 1, QUARTER
	note E_, 3
	note_type 1, EIGHTH
	rest
	note A_, 3
	rest
	note_type 1, QUARTER
	note B_, 3
	note_type 1, EIGHTH
	note A#, 3
	note_type 1, QUARTER
	note A_, 3
	note_type 1, HALF_TRIPLET
	note G_, 3
	note E_, 4
	note G_, 4
	note_type 1, QUARTER
	note A_, 4
	note_type 1, EIGHTH
	note F_, 4
	note G_, 4
	rest
	note E_, 4
	rest
	note C_, 4
	rest
	note D_, 4
	note_type 1, QUARTER
	note B_, 3

	note_type 1, EIGHTH_TRIPLET
	note E_, 5
	note G_, 5
	note_type 1, HALF_TRIPLET
	rest
	note_type 1, EIGHTH
	rest
	note_type 1, EIGHTH_TRIPLET
	note E_, 5
	note G_, 5
	rest
	note E_, 5
	note G_, 5
	note_type 1, HALF_TRIPLET
	rest
	note_type 1, QUARTER
	rest
	note_type 1, EIGHTH
	rest
	note_type 1, EIGHTH_TRIPLET
	note F_, 5
	note A_, 5
	note_type 1, HALF_TRIPLET
	rest
	note_type 1, EIGHTH_TRIPLET
	note F_, 5
	note A_, 5
	rest
	note F_, 5
	note A_, 5
	note_type 1, HALF_TRIPLET
	rest
	note_type 1, QUARTER
	rest
	note_type 1, EIGHTH_TRIPLET
	note E_, 5
	note G_, 5
	note_type 1, HALF_TRIPLET
	rest
	note_type 1, EIGHTH
	rest
	note_type 1, EIGHTH_TRIPLET
	note E_, 5
	note G_, 5
	rest
	note E_, 5
	note G_, 5
	note_type 1, HALF_TRIPLET
	rest
	note_type 1, QUARTER
	rest
	note_type 1, EIGHTH
	rest
	note_type 1, EIGHTH_TRIPLET
	note F_, 5
	note A_, 5
	note_type 1, HALF_TRIPLET
	rest
	note_type 1, EIGHTH_TRIPLET
	note F_, 5
	note A_, 5
	rest
	note F_, 5
	note A_, 5
	note_type 1, HALF_TRIPLET
	rest
	note_type 1, QUARTER
	rest

	note_type 1, EIGHTH_TRIPLET
	note E_, 5
	note G_, 5
	note_type 1, HALF_TRIPLET
	rest
	note_type 1, EIGHTH
	rest
	note_type 1, EIGHTH_TRIPLET
	note E_, 5
	note G_, 5
	rest
	note E_, 5
	note G_, 5
	note_type 1, HALF_TRIPLET
	rest
	note_type 1, QUARTER
	rest
	note_type 1, EIGHTH
	rest
	note_type 1, EIGHTH_TRIPLET
	note F_, 5
	note A_, 5
	note_type 1, HALF_TRIPLET
	rest
	note_type 1, EIGHTH_TRIPLET
	note F_, 5
	note A_, 5
	rest
	note F_, 5
	note A_, 5
	note_type 1, HALF_TRIPLET
	rest
	note_type 1, HALF
	rest
	note_type 1, EIGHTH_TRIPLET
	note D#, 5
	note G#, 5
	note_type 1, HALF_TRIPLET
	rest
	note_type 1, EIGHTH
	rest
	note_type 1, EIGHTH_TRIPLET
	note F_, 5
	note A#, 5
	note_type 1, HALF_TRIPLET
	rest
	note_type 1, EIGHTH
	rest
	note_type 1, EIGHTH_TRIPLET
	note E_, 5
	note C_, 6
	note_type 1, HALF_TRIPLET
	rest
	note_type 1, DOTTED_HALF
	rest

MusicDataSubspace_Noise:
	note_type 1, QUARTER
	drum_note Noise_OWKick
	note_type 1, HALF_TRIPLET
	drum_note Noise_OWClosedHihat
	drum_note Noise_OWClosedHihat
	drum_rest
	drum_note Noise_OWKick
	note_type 1, QUARTER
	drum_note Noise_OWClosedHihat
	note_type 1, QUARTER_TRIPLET
	drum_note Noise_OWKick
	note_type 1, HALF_TRIPLET
	drum_note Noise_OWClosedHihat
	note_type 1, QUARTER_TRIPLET
	drum_note Noise_OWKick
	note_type 1, QUARTER
	drum_note Noise_OWSnare
	note_type 1, HALF_TRIPLET
	drum_note Noise_OWClosedHihat
	note_type 1, QUARTER_TRIPLET
	drum_note Noise_OWClosedHihat
	sound_loop

MusicDataSubspace_DPCM:
	note_type 1, QUARTER
	note C_, 2
	note_type 1, EIGHTH
	rest
	note_type 1, QUARTER
	note E_, 2
	note_type 1, EIGHTH
	rest
	note_type 1, QUARTER
	note G_, 2
	note_type 1, EIGHTH
	rest
	note F_, 2
	rest
	note_type 1, QUARTER
	note G_, 2
	note_type 1, EIGHTH
	note F#, 2
	note_type 1, QUARTER
	note F_, 2
	note_type 1, HALF_TRIPLET
	note E_, 2
	note C_, 3
	note E_, 3
	note_type 1, QUARTER
	note F_, 3
	note_type 1, EIGHTH
	note D_, 3
	note E_, 3
	rest
	note C_, 3
	rest
	note A_, 2
	rest
	note B_, 2
	note_type 1, QUARTER
	note G_, 2
	note C_, 2
	note_type 1, EIGHTH
	rest
	note_type 1, QUARTER
	note E_, 2
	note_type 1, EIGHTH
	rest
	note_type 1, QUARTER
	note G_, 2
	note F_, 2
	note_type 1, EIGHTH
	rest
	note C_, 3
	note_type 1, QUARTER
	note C_, 3
	note F_, 2
	note C_, 2
	note_type 1, EIGHTH
	rest
	note_type 1, QUARTER
	note E_, 2
	note_type 1, EIGHTH
	rest
	note_type 1, QUARTER
	note G_, 2
	note F_, 2
	note_type 1, EIGHTH
	rest
	note_type 1, QUARTER
	note A#, 1
	note_type 1, EIGHTH
	rest
	note_type 1, QUARTER
	note B_, 1
	note C_, 2
	note_type 1, EIGHTH
	rest
	note_type 1, QUARTER
	note E_, 2
	note_type 1, EIGHTH
	rest
	note_type 1, QUARTER
	note G_, 2
	note F_, 2
	note_type 1, EIGHTH
	rest
	note C_, 3
	note_type 1, QUARTER
	note C_, 3
	note F_, 2
	note C_, 2
	note G#, 2
	note_type 1, EIGHTH
	rest
	note_type 1, QUARTER
	note A#, 2
	note_type 1, EIGHTH
	rest
	note_type 1, QUARTER
	note C_, 3
	note_type 1, EIGHTH
	note F#, 2
	note G_, 2
	note_type 1, HALF
	note C_, 3
