MusicDataUnderground:
MusicDataUnderground_Square2:
	note_type 4, EIGHTH
	note C_, 3
	note G_, 3
	note C_, 4
	note A#, 3
	note A#, 3
	note_type 4, QUARTER
	note B_, 3
	note_type 4, EIGHTH
	rest
	note C_, 3
	note G_, 3
	note C_, 4
	note A#, 3
	note A#, 3
	note_type 4, QUARTER
	note A_, 3
	note_type 4, EIGHTH
	rest
	note_type 1, QUARTER
	rest
	note_type 1, DOTTED_QUARTER
	note C_, 3
	note A#, 2
	note F_, 2
	note_type 1, QUARTER
	note G#, 2
	note A#, 2
	note_type 1, EIGHTH
	note D#, 2
	note_type 1, QUARTER
	note F_, 2
	note_type 1, DOTTED_QUARTER
	note C_, 2
	note D_, 2
	note_type 1, DOTTED_HALF
	note D#, 2
	note_type 1, QUARTER
	rest
	sound_ret

MusicDataUnderground_Square1:
	note_type 2, EIGHTH
	note F_, 2
	note C_, 3
	note F_, 3
	note D#, 3
	note_type 4, EIGHTH
	note D#, 3
	note_type 2, QUARTER
	note E_, 3
	note_type 2, EIGHTH
	rest
	note F_, 2
	note C_, 3
	note F_, 3
	note D#, 3
	note_type 4, EIGHTH
	note D#, 3
	note_type 2, QUARTER
	note D_, 3
	note_type 2, EIGHTH
	rest
	note_type 1, QUARTER
	rest
	note_type 1, DOTTED_QUARTER
	note F_, 2
	note D#, 2
	note C_, 2
	note_type 1, QUARTER
	note D#, 2
	note F_, 2
	note_type 1, EIGHTH
	note A#, 1
	note_type 1, QUARTER
	note C_, 2
	note_type 1, DOTTED_QUARTER
	note F_, 1
	note G_, 1
	note_type 1, DOTTED_HALF
	note G#, 1
	note_type 1, QUARTER
	rest
	toggle_sweep ; unused

MusicDataUnderground_Triangle:
	note_type 2, HALF_TRIPLET
	drum_note 36
	note_type 2, EIGHTH_TRIPLET
	drum_note 47
	drum_note 47
	note_type 2, EIGHTH
	drum_note 47
	note_type 2, QUARTER
	drum_note 47
	note_type 2, EIGHTH
	drum_note 36
	drum_note 36
	drum_note 36
	sound_loop

MusicDataUnderground_Noise:
	note_type 1, WHOLE
	drum_rest
	sound_loop

MusicDataUnderground_DPCM:
	note_type 1, EIGHTH
	note F_, 2
	note C_, 3
	note F_, 3
	note A_, 3
	rest
	note A#, 3
	note F_, 3
	note C_, 3
	note F_, 2
	note C_, 3
	note F_, 3
	note A_, 3
	rest
	note G#, 3
	note F_, 3
	note C_, 3
	note F_, 2
	note C_, 3
	note F_, 3
	note C_, 3
	rest
	note G#, 3
	note F_, 3
	note C_, 3
	note F_, 2
	note C_, 3
	note F_, 3
	note C_, 3
	rest
	note G#, 3
	note F_, 3
	note C_, 3
	note F_, 2
	note C_, 3
	note F_, 3
	note C_, 3
	rest
	note G#, 3
	note F_, 3
	note C_, 3
	note F_, 2
	note C_, 3
	note F_, 3
	note C_, 3
	rest
	note G#, 3
	note F_, 3
	note C_, 3
