MusicDataBoss:
MusicDataBoss_Square2:
	note_type 8, EIGHTH
	rest
	note A_, 1
	note A_, 1
	rest
	note A_, 1
	note A_, 1
	rest
	note A_, 1
	rest
	note A_, 1
	note A_, 1
	rest
	note A_, 1
	note A_, 1
	rest
	note A_, 1
	rest
	note G#, 1
	note G#, 1
	rest
	note G#, 1
	note G#, 1
	rest
	note G#, 1
	rest
	note G#, 1
	note G#, 1
	rest
	note G#, 1
	note G#, 1
	rest
	note G#, 1
	rest
	note B_, 1
	note B_, 1
	rest
	note B_, 1
	note B_, 1
	rest
	note B_, 1
	rest
	note B_, 1
	note B_, 1
	rest
	note B_, 1
	note B_, 1
	rest
	note B_, 1
	rest
	note A#, 1
	note A#, 1
	rest
	note A#, 1
	note A#, 1
	rest
	note A#, 1
	rest
	note A#, 1
	note A#, 1
	rest
	note A#, 1
	note A#, 1
	rest
	note A#, 1
	sound_ret
MusicDataBoss_Square1:
	note_type 8, EIGHTH
	note D_, 2
	note D#, 2
	note D#, 2
	note D_, 2
	note D#, 2
	note D#, 2
	note D_, 2
	note D#, 2
	note D_, 2
	note D#, 2
	note D#, 2
	note D_, 2
	note D#, 2
	note D#, 2
	note D_, 2
	note D#, 2
	note D_, 2
	note D#, 2
	note D#, 2
	note D_, 2
	note D#, 2
	note D#, 2
	note D_, 2
	note D#, 2
	note D_, 2
	note D#, 2
	note D#, 2
	note D_, 2
	note D#, 2
	note D#, 2
	note D_, 2
	note D#, 2
	note E_, 2
	note F_, 2
	note F_, 2
	note E_, 2
	note F_, 2
	note F_, 2
	note E_, 2
	note F_, 2
	note E_, 2
	note F_, 2
	note F_, 2
	note E_, 2
	note F_, 2
	note F_, 2
	note E_, 2
	note F_, 2
	note E_, 2
	note F_, 2
	note F_, 2
	note E_, 2
	note F_, 2
	note F_, 2
	note E_, 2
	note F_, 2
	note E_, 2
	note F_, 2
	note F_, 2
	note E_, 2
	note F_, 2
	note F_, 2
	note E_, 2
	note F_, 2
MusicDataBoss_Triangle:
	note_type 1, QUARTER
	note F#, 2
	note_type 1, EIGHTH
	rest
	note_type 1, QUARTER
	note F#, 2
	note_type 1, EIGHTH
	rest
	note_type 1, QUARTER
	note F#, 2
	note F#, 2
	note_type 1, EIGHTH
	rest
	note_type 1, QUARTER
	note F#, 2
	note_type 1, EIGHTH
	rest
	note_type 1, QUARTER
	note F#, 2
	note F_, 2
	note_type 1, EIGHTH
	rest
	note_type 1, QUARTER
	note F_, 2
	note_type 1, EIGHTH
	rest
	note_type 1, QUARTER
	note F_, 2
	note F_, 2
	note_type 1, EIGHTH
	rest
	note_type 1, QUARTER
	note F_, 2
	note_type 1, EIGHTH
	rest
	note_type 1, QUARTER
	note F_, 2
	note G#, 2
	note_type 1, EIGHTH
	rest
	note_type 1, QUARTER
	note G#, 2
	note_type 1, EIGHTH
	rest
	note_type 1, QUARTER
	note G#, 2
	note G#, 2
	note_type 1, EIGHTH
	rest
	note_type 1, QUARTER
	note G#, 2
	note_type 1, EIGHTH
	rest
	note_type 1, QUARTER
	note G#, 2
	note G_, 2
	note_type 1, EIGHTH
	rest
	note_type 1, QUARTER
	note G_, 2
	note_type 1, EIGHTH
	rest
	note_type 1, QUARTER
	note G_, 2
	note G_, 2
	note_type 1, EIGHTH
	rest
	note_type 1, QUARTER
	note G_, 2
	note_type 1, EIGHTH
	rest
	note_type 1, QUARTER
	note G_, 2

MusicDataBoss_Noise:
	note_type 1, EIGHTH
	drum_note Noise_Kick
	drum_note Noise_Kick
	drum_note Noise_Snare
	drum_note Noise_Kick
	drum_note Noise_Kick
	drum_note Noise_Snare
	drum_note Noise_Kick
	drum_note Noise_Snare
	drum_note Noise_Kick
	drum_note Noise_Kick
	drum_note Noise_Snare
	drum_note Noise_Kick
	drum_note Noise_Kick
	drum_note Noise_Snare
	drum_note Noise_Kick
	drum_note Noise_Snare
	drum_note Noise_Kick
	drum_note Noise_Kick
	drum_note Noise_Snare
	drum_note Noise_Kick
	drum_note Noise_Kick
	drum_note Noise_Snare
	drum_note Noise_Kick
	drum_note Noise_Snare
	drum_note Noise_Kick
	drum_note Noise_Kick
	drum_note Noise_Snare
	drum_note Noise_Kick
	drum_note Noise_Kick
	drum_note Noise_Snare
	drum_note Noise_Kick
	drum_note Noise_Snare
	drum_note Noise_Kick
	drum_note Noise_Kick
	drum_note Noise_Snare
	drum_note Noise_Kick
	drum_note Noise_Kick
	drum_note Noise_Snare
	drum_note Noise_Kick
	drum_note Noise_Snare
	drum_note Noise_Kick
	drum_note Noise_Kick
	drum_note Noise_Snare
	drum_note Noise_Kick
	drum_note Noise_Kick
	drum_note Noise_Snare
	drum_note Noise_Kick
	drum_note Noise_Snare
	drum_note Noise_Kick
	drum_note Noise_Kick
	drum_note Noise_Snare
	drum_note Noise_Kick
	drum_note Noise_Kick
	drum_note Noise_Snare
	drum_note Noise_Kick
	drum_note Noise_Snare
	drum_note Noise_Kick
	drum_note Noise_Snare
	drum_note Noise_Snare
	drum_note Noise_Kick
	drum_note Noise_Snare
	drum_note Noise_Snare
	drum_note Noise_Kick
	drum_note Noise_Snare
