MusicDataTitleScreen:
MusicDataTitleScreen_Square2:
	note_type 4, WHOLE
	rest
	note_type 4, DOTTED_QUARTER
	rest
	note_type 4, EIGHTH
	note D_, 3
	note_type 4, QUARTER
	note D_, 4
	note_type 4, DOTTED_EIGHTH
	rest
	note_type 4, EIGHTH
	rest
	note E_, 4
	note E_, 4
	rest
	note D#, 4
	note D#, 4
	rest
	note E_, 4
	note E_, 4
	rest
	note G_, 4
	note G_, 4
	rest
	note E_, 4
	note E_, 4
	rest
	note D#, 4
	note D#, 4
	rest
	note E_, 4
	note E_, 4
	rest
	note E_, 4
	note E_, 4
	rest
	note D_, 4
	note D_, 4
	rest
	note C#, 4
	note C#, 4
	rest
	note D_, 4
	note D_, 4
	rest
	note G_, 4
	note G_, 4
	rest
	note D_, 4
	note D_, 4
	rest
	note D_, 4
	note D_, 4
	rest
	note E_, 4
	note E_, 4
	rest
	note G_, 4
	note G_, 4
	note_type 8, SIXTEENTH
	rest
	note G_, 4
	note B_, 4
	note C_, 5
	note E_, 5
	note G_, 5
	rest
	note G_, 4
	note B_, 4
	note C_, 5
	note E_, 5
	note G_, 5
	rest
	note G_, 4
	note A#, 4
	note C_, 5
	note E_, 5
	note G_, 5
	rest
	note G_, 4
	note_type 4, QUARTER
	note G_, 3
	note_type 8, SIXTEENTH
	rest
	note A_, 4
	note C#, 5
	note D_, 5
	note F_, 5
	note A_, 5
	rest
	note A_, 4
	note C#, 5
	note D_, 5
	note F_, 5
	note A_, 5
	rest
	note A_, 4
	note C_, 5
	note D_, 5
	note F_, 5
	note A_, 5
	rest
	note A_, 4
	note_type 4, QUARTER
	note D_, 4
	note_type 4, EIGHTH
	rest
	note E_, 4
	note E_, 4
	rest
	note C_, 4
	note C_, 4
	note_type 4, SIXTEENTH
	note B_, 3
	note B_, 3
	note_type 4, DOTTED_EIGHTH
	note B_, 3
	note_type 4, SIXTEENTH
	note G_, 3
	note_type 4, DOTTED_QUARTER
	note G_, 3
	note G_, 2
	note_type 4, QUARTER
	note G_, 2
	note_type 4, EIGHTH
	note F_, 3
	note G_, 3
	sound_ret

MusicDataTitleScreen_Square1:
	note_type 4, SIXTEENTH
	note G_, 5
	note F_, 5
	rest
	note D_, 5
	note B_, 4
	rest
	note G_, 4
	note F_, 4
	rest
	note D_, 4
	note B_, 3
	rest
	note G_, 3
	note F#, 3
	rest
	note F_, 3
	note D_, 3
	note B_, 2
	note_type 4, QUARTER
	note G_, 2
	note_type 5, EIGHTH
	note B_, 2
	note_type 5, QUARTER
	note B_, 3
	note_type 5, DOTTED_EIGHTH
	rest
	note_type 5, EIGHTH
	note C_, 4
	note_type 4, SIXTEENTH
	note G_, 4
	note_type 5, SIXTEENTH
	note C_, 4
	note_type 4, EIGHTH
	note G_, 4
	note_type 5, EIGHTH
	note B_, 3
	note_type 4, SIXTEENTH
	note G_, 4
	note_type 5, SIXTEENTH
	note B_, 3
	note_type 4, EIGHTH
	note G_, 4
	note_type 5, EIGHTH
	note C_, 4
	note_type 4, EIGHTH
	note G_, 4
	note G_, 4
	rest
	note_type 4, SIXTEENTH
	note A_, 3
	note B_, 3
	note C_, 4
	note D_, 4
	note_type 5, EIGHTH
	note C_, 4
	note_type 4, SIXTEENTH
	note G_, 4
	note_type 5, SIXTEENTH
	note C_, 4
	note_type 4, EIGHTH
	note G_, 4
	note_type 5, EIGHTH
	note B_, 3
	note_type 4, SIXTEENTH
	note G_, 4
	note_type 5, SIXTEENTH
	note B_, 3
	note_type 4, EIGHTH
	note G_, 4
	note_type 5, EIGHTH
	note C_, 4
	note_type 4, EIGHTH
	note G_, 4
	note G_, 4
	rest
	note G_, 4
	note G_, 4
	note_type 5, EIGHTH
	note B_, 3
	note_type 4, SIXTEENTH
	note G_, 4
	note_type 5, SIXTEENTH
	note B_, 3
	note_type 4, EIGHTH
	note G_, 4
	note_type 5, EIGHTH
	note A#, 3
	note_type 4, SIXTEENTH
	note G_, 4
	note_type 5, SIXTEENTH
	note A#, 3
	note_type 4, EIGHTH
	note G_, 4
	note_type 5, EIGHTH
	note B_, 3
	note_type 4, EIGHTH
	note G_, 4
	note G_, 4
	rest
	note_type 4, SIXTEENTH
	note G_, 3
	note A_, 3
	note B_, 3
	note C_, 4
	note_type 5, EIGHTH
	note B_, 3
	note_type 4, SIXTEENTH
	note G_, 4
	note_type 5, SIXTEENTH
	note B_, 3
	note_type 4, EIGHTH
	note G_, 4
	note_type 5, EIGHTH
	note G_, 3
	note_type 4, SIXTEENTH
	note G_, 4
	note_type 5, SIXTEENTH
	note B_, 3
	note_type 4, EIGHTH
	note G_, 4
	note_type 5, EIGHTH
	note C_, 4
	note_type 4, SIXTEENTH
	note G_, 4
	note G_, 3
	note A_, 3
	note G_, 3
	note_type 4, EIGHTH
	note B_, 3
	note C_, 4
	note D_, 4
	note_type 4, SIXTEENTH
	note E_, 4
	note C_, 4
	note G_, 3
	note E_, 4
	note G_, 3
	note C_, 4
	note D_, 4
	note B_, 3
	note G_, 3
	note D_, 4
	note G_, 3
	note B_, 3
	note C#, 4
	note A#, 3
	note G_, 3
	note C#, 4
	note G_, 3
	note A#, 3
	note C#, 4
	note C#, 4
	note_type 4, DOTTED_EIGHTH
	note C#, 4
	note_type 4, SIXTEENTH
	note C#, 4
	note D_, 4
	note A_, 3
	note F_, 4
	note D_, 4
	note F_, 4
	note A_, 3
	note C#, 4
	note A_, 3
	note E_, 4
	note C#, 4
	note E_, 4
	note A_, 3
	note C_, 4
	note A_, 3
	note D_, 4
	note C_, 4
	note D_, 4
	note A_, 3
	note B_, 3
	note B_, 3
	note_type 4, DOTTED_EIGHTH
	note B_, 3
	note_type 4, SIXTEENTH
	note B_, 3
	note C_, 4
	note G_, 3
	note G_, 3
	note C_, 4
	note G_, 3
	note G_, 3
	note_type 4, EIGHTH
	note F_, 3
	note F_, 3
	note F_, 3
	note_type 4, SIXTEENTH
	note F_, 3
	note F_, 3
	note_type 4, DOTTED_EIGHTH
	note F_, 3
	note_type 4, SIXTEENTH
	note F_, 3
	note_type 4, DOTTED_EIGHTH
	note E_, 3
	note_type 4, SIXTEENTH
	note G_, 2
	note E_, 2
	note D_, 2
	note_type 4, DOTTED_EIGHTH
	note E_, 2
	note_type 4, SIXTEENTH
	note G_, 1
	note E_, 1
	note D_, 1
	note_type 4, QUARTER
	note E_, 2
	note_type 4, EIGHTH
	note B_, 2
	note E_, 3

MusicDataTitleScreen_Triangle:
	note_type 1, WHOLE
	rest
	note_type 1, DOTTED_HALF
	rest
	note_type 1, DOTTED_EIGHTH
	rest
	note_type 1, EIGHTH
	note C_, 3
	note_type 4, SIXTEENTH
	note C_, 5
	rest
	note C_, 5
	rest
	note_type 1, EIGHTH
	note B_, 2
	note_type 4, SIXTEENTH
	note B_, 4
	rest
	note B_, 4
	rest
	note_type 1, EIGHTH
	note C_, 3
	note_type 4, SIXTEENTH
	note C_, 5
	rest
	note C_, 5
	rest
	note_type 1, EIGHTH
	note G_, 2
	note_type 4, SIXTEENTH
	note C_, 5
	rest
	note C_, 5
	rest
	note_type 1, EIGHTH
	note C_, 3
	note_type 4, SIXTEENTH
	note C_, 5
	rest
	note C_, 5
	rest
	note_type 1, EIGHTH
	note B_, 2
	note_type 4, SIXTEENTH
	note B_, 4
	rest
	note B_, 4
	rest
	note_type 1, EIGHTH
	note C_, 3
	note_type 4, SIXTEENTH
	note C_, 5
	rest
	note C_, 5
	rest
	note_type 1, EIGHTH
	note G_, 2
	note_type 4, SIXTEENTH
	note C_, 5
	rest
	note C_, 5
	rest
	note_type 1, EIGHTH
	note B_, 2
	note_type 4, SIXTEENTH
	note G_, 4
	rest
	note G_, 4
	rest
	note_type 1, EIGHTH
	note A#, 2
	note_type 4, SIXTEENTH
	note A#, 4
	rest
	note A#, 4
	rest
	note_type 1, EIGHTH
	note B_, 2
	note_type 4, SIXTEENTH
	note B_, 4
	rest
	note B_, 4
	rest
	note_type 1, EIGHTH
	note G_, 2
	note_type 4, SIXTEENTH
	note D_, 5
	rest
	note D_, 5
	rest
	note_type 1, EIGHTH
	note B_, 2
	note_type 4, SIXTEENTH
	note B_, 4
	rest
	note B_, 4
	rest
	note_type 1, EIGHTH
	note G_, 2
	note_type 4, SIXTEENTH
	note B_, 4
	rest
	note B_, 4
	rest
	note_type 1, EIGHTH
	note C_, 3
	note_type 4, SIXTEENTH
	note B_, 4
	rest
	note B_, 4
	rest
	note_type 1, EIGHTH
	note G_, 2
	note_type 4, SIXTEENTH
	note B_, 4
	rest
	note B_, 4
	rest
	note_type 1, EIGHTH
	note C_, 3
	note_type 4, SIXTEENTH
	note E_, 5
	rest
	note E_, 5
	rest
	note_type 1, EIGHTH
	note B_, 2
	note_type 4, SIXTEENTH
	note E_, 5
	rest
	note E_, 5
	rest
	note_type 1, EIGHTH
	note A#, 2
	note_type 4, SIXTEENTH
	note E_, 5
	rest
	note E_, 5
	rest
	note_type 1, EIGHTH
	note A_, 2
	note_type 4, EIGHTH
	note E_, 5
	rest
	note_type 1, EIGHTH
	note D_, 3
	note_type 4, SIXTEENTH
	note A_, 5
	rest
	note A_, 5
	rest
	note_type 1, EIGHTH
	note C#, 3
	note_type 4, SIXTEENTH
	note A_, 5
	rest
	note A_, 5
	rest
	note_type 1, EIGHTH
	note C_, 3
	note_type 4, SIXTEENTH
	note A_, 5
	rest
	note A_, 5
	rest
	note_type 1, EIGHTH
	note B_, 2
	note_type 4, EIGHTH
	note A_, 5
	rest
	note_type 1, EIGHTH
	note C_, 3
	note_type 4, SIXTEENTH
	note C_, 5
	rest
	note C_, 5
	rest
	note_type 1, EIGHTH
	note F_, 2
	note_type 4, SIXTEENTH
	note A_, 4
	rest
	note A_, 4
	rest
	note_type 1, SIXTEENTH
	note G_, 2
	note G_, 2
	note_type 1, EIGHTH
	note G_, 2
	note_type 1, SIXTEENTH
	rest
	note B_, 2
	note_type 1, EIGHTH
	note C_, 3
	rest
	rest
	note C_, 3
	rest
	rest
	note C_, 3
	rest
	note_type 1, SIXTEENTH
	note G_, 2
	rest
	note_type 1, EIGHTH
	note C_, 3

MusicDataTitleScreen_Noise:
	note_type 1, EIGHTH
REPT 3
	drum_note Noise_ClosedHihat
	note_type 1, SIXTEENTH
	drum_note Noise_ClosedHihat
	drum_note Noise_ClosedHihat
	note_type 1, EIGHTH
	drum_note Noise_OpenHihat
ENDR
	drum_note Noise_ClosedHihat
	drum_rest
	drum_note Noise_OpenHihat
	drum_note Noise_ClosedHihat
	drum_rest
	note_type 1, DOTTED_EIGHTH
	drum_rest
	note_type 1, EIGHTH
REPT 8
	drum_note Noise_OpenHihat
	drum_note Noise_ClosedHihat
	drum_note Noise_ClosedHihat
	drum_note Noise_OpenHihat
	note_type 1, SIXTEENTH
	drum_note Noise_ClosedHihat
	drum_note Noise_ClosedHihat
	note_type 1, EIGHTH
	drum_note Noise_ClosedHihat
ENDR
REPT 2
	drum_note Noise_OpenHihat
	drum_note Noise_ClosedHihat
	drum_note Noise_ClosedHihat
	drum_note Noise_OpenHihat
	note_type 1, SIXTEENTH
	drum_note Noise_ClosedHihat
	drum_note Noise_ClosedHihat
	note_type 1, EIGHTH
	drum_note Noise_ClosedHihat
	drum_note Noise_OpenHihat
	drum_note Noise_ClosedHihat
	drum_note Noise_ClosedHihat
	note_type 1, SIXTEENTH
	drum_note Noise_OpenHihat
	drum_note Noise_ClosedHihat
	drum_note Noise_ClosedHihat
	drum_rest
	drum_rest
	drum_note Noise_ClosedHihat
	note_type 1, EIGHTH
ENDR
	drum_note Noise_OpenHihat
	drum_note Noise_ClosedHihat
	drum_note Noise_ClosedHihat
	drum_note Noise_OpenHihat
	note_type 1, SIXTEENTH
	drum_note Noise_ClosedHihat
	drum_note Noise_ClosedHihat
	drum_note Noise_ClosedHihat
	drum_rest
	drum_note Noise_OpenHihat
	drum_note Noise_ClosedHihat
	drum_note Noise_OpenHihat
	drum_rest
	drum_rest
	drum_note Noise_ClosedHihat
	note_type 1, DOTTED_QUARTER
	drum_note Noise_OpenHihat
	drum_note Noise_OpenHihat
	note_type 1, EIGHTH
	drum_note Noise_OpenHihat
	drum_rest
	drum_note Noise_ClosedHihat
	drum_note Noise_OpenHihat

MusicDataTitleScreen_DPCM:
	note_type 1, DOTTED_HALF
	rest
	note_type 1, SIXTEENTH
	note G_, 3
	note F#, 3
	rest
	note F_, 3
	note D_, 3
	note B_, 2
	note B_, 2
	note_type 1, DOTTED_EIGHTH
	rest
	note_type 1, SIXTEENTH
	note G_, 4
	rest
	note G_, 5
	note_type 1, DOTTED_EIGHTH
	rest
	note_type 1, EIGHTH
	note G_, 4
	note_type 1, SIXTEENTH
	rest
	note E_, 5
	note G_, 4
	note C_, 5
	note E_, 5
	rest
	note G_, 4
	note D#, 5
	note G_, 4
	note B_, 4
	note D#, 5
	rest
	note G_, 4
	note_type 1, EIGHTH
	note E_, 5
	note_type 1, SIXTEENTH
	rest
	note G_, 2
	note A_, 2
	note G_, 2
	note B_, 2
	rest
	note A_, 2
	rest
	note G_, 2
	rest
	note E_, 5
	note G_, 4
	note C_, 5
	note E_, 5
	rest
	note G_, 4
	note D#, 5
	note G_, 4
	note B_, 4
	note F_, 5
	rest
	note G_, 4
	note_type 1, EIGHTH
	note E_, 5
	note_type 1, SIXTEENTH
	rest
	note G_, 2
	note A_, 2
	note G_, 2
	note B_, 2
	rest
	note A_, 2
	rest
	note G_, 2
	rest
	note D_, 5
	note G_, 4
	note B_, 4
	note D_, 5
	rest
	note G_, 4
	note C#, 5
	note G_, 4
	note A#, 4
	note C#, 5
	rest
	note G_, 4
	note_type 1, EIGHTH
	note D_, 5
	note_type 1, SIXTEENTH
	rest
	note G_, 2
	note A_, 2
	note G_, 2
	note B_, 2
	rest
	note A_, 2
	rest
	note G_, 2
	rest
	note D_, 5
	note G_, 4
	note B_, 4
	note D_, 5
	rest
	note G_, 4
	note B_, 4
	note G_, 4
	note B_, 4
	note F_, 5
	rest
	note G_, 4
	note_type 1, EIGHTH
	note E_, 5
	note_type 1, SIXTEENTH
	rest
	note G_, 2
	note A_, 2
	note G_, 2
	note B_, 2
	rest
	note C_, 3
	rest
	note D_, 3
	rest
	note G_, 5
	note C_, 5
	rest
	note G_, 5
	rest
	note C_, 5
	note G_, 5
	note B_, 4
	rest
	note G_, 5
	rest
	note B_, 4
	note G_, 5
	note A#, 4
	rest
	note G_, 5
	rest
	note A#, 4
	note G_, 5
	note C#, 5
	note_type 1, EIGHTH
	note A_, 5
	note_type 1, SIXTEENTH
	rest
	note G_, 5
	note F_, 5
	note A_, 4
	rest
	note F_, 5
	rest
	note A_, 4
	note F_, 5
	note A_, 4
	rest
	note F_, 5
	rest
	note A_, 4
	note F_, 5
	note A_, 4
	rest
	note F_, 5
	rest
	note A_, 4
	note F_, 5
	note B_, 4
	note_type 1, EIGHTH
	note G_, 5
	note_type 1, SIXTEENTH
	rest
	note F_, 5
	note E_, 5
	note G_, 4
	rest
	note E_, 5
	rest
	note G_, 4
	note A_, 4
	rest
	note B_, 4
	rest
	note F_, 5
	rest
	note E_, 5
	note E_, 5
	note_type 1, EIGHTH
	note E_, 5
	note_type 1, SIXTEENTH
	rest
	note B_, 4
	note_type 1, EIGHTH
	note C_, 5
	note_type 1, SIXTEENTH
	rest
	note G_, 4
	note E_, 4
	note D_, 4
	note C_, 4
	rest
	rest
	note G_, 3
	note E_, 3
	note D_, 3
	note C_, 3
	rest
	rest
	rest
	note G_, 4
	rest
	note C_, 5
	rest
