MusicDataBossBeaten:
MusicDataBossBeaten_Square2:
	note_type 2, DOTTED_EIGHTH
	note F_, 1
	note_type 2, SIXTEENTH
	rest
	note_type 2, DOTTED_EIGHTH
	note F_, 2
	note_type 2, SIXTEENTH
	rest
	note_type 2, DOTTED_EIGHTH
	note F#, 1
	note_type 2, SIXTEENTH
	rest
	note_type 2, DOTTED_EIGHTH
	note F#, 2
	note_type 2, SIXTEENTH
	rest
	note_type 2, DOTTED_EIGHTH
	note G_, 1
	note_type 2, SIXTEENTH
	rest
	note_type 2, DOTTED_EIGHTH
	note G_, 2
	note_type 2, SIXTEENTH
	rest
	note_type 2, DOTTED_EIGHTH
	note A_, 1
	note_type 2, SIXTEENTH
	rest
	note_type 2, DOTTED_EIGHTH
	note A_, 2
	note_type 2, SIXTEENTH
	rest
	note_type 2, DOTTED_EIGHTH
	note D_, 2
	note_type 2, SIXTEENTH
	rest
	note_type 2, DOTTED_EIGHTH
	note A_, 2
	note_type 2, SIXTEENTH
	rest
	note_type 2, DOTTED_EIGHTH
	note G_, 1
	note_type 2, SIXTEENTH
	rest
	note_type 2, DOTTED_EIGHTH
	note B_, 2
	note_type 2, SIXTEENTH
	rest
	note_type 2, QUARTER
	note C_, 3
	note_type 2, DOTTED_HALF
	rest
	note_type 2, HALF
	rest
	note_type 4, QUARTER
	note G_, 3
	sound_ret
MusicDataBossBeaten_Square1:
	note_type 4, EIGHTH
	note A_, 3
	note C_, 4
	note D_, 4
	note A_, 3
	note C_, 4
	note D_, 4
	note G_, 3
	note A_, 3
	note E_, 4
	note G_, 3
	note A_, 3
	note F_, 4
	note E_, 4
	note C_, 4
	note A_, 3
	rest
	note F_, 3
	note A_, 3
	note C_, 4
	note E_, 4
	note D_, 4
	note G_, 3
	note_type 4, QUARTER
	note A_, 3
	note C_, 4
	note_type 4, EIGHTH
	note G_, 3
	note A_, 3
	rest
	note G_, 3
	note_type 4, QUARTER
	note E_, 3
	note_type 4, QUARTER
	note C_, 3
	note G_, 2
	note C_, 4
MusicDataBossBeaten_Triangle:
	note_type 1, DOTTED_EIGHTH
	note F_, 2
	note_type 1, SIXTEENTH
	rest
	note_type 1, DOTTED_EIGHTH
	note C_, 3
	note_type 1, SIXTEENTH
	rest
	note_type 1, DOTTED_EIGHTH
	note F#, 2
	note_type 1, SIXTEENTH
	rest
	note_type 1, DOTTED_EIGHTH
	note C_, 3
	note_type 1, SIXTEENTH
	rest
	note_type 1, DOTTED_EIGHTH
	note G_, 2
	note_type 1, SIXTEENTH
	rest
	note_type 1, DOTTED_EIGHTH
	note D_, 3
	note_type 1, SIXTEENTH
	rest
	note_type 1, DOTTED_EIGHTH
	note A_, 2
	note_type 1, SIXTEENTH
	rest
	note_type 1, DOTTED_EIGHTH
	note E_, 3
	note_type 1, SIXTEENTH
	rest
	note_type 1, DOTTED_EIGHTH
	note D_, 3
	note_type 1, SIXTEENTH
	rest
	note_type 1, DOTTED_EIGHTH
	note F_, 2
	note_type 1, SIXTEENTH
	rest
	note_type 1, DOTTED_EIGHTH
	note G_, 2
	note_type 1, SIXTEENTH
	rest
	note_type 1, DOTTED_EIGHTH
	note D_, 3
	note_type 1, SIXTEENTH
	rest
	note_type 1, DOTTED_EIGHTH
	note C_, 3
	note_type 1, SIXTEENTH
	rest
	note_type 1, EIGHTH
	note G_, 3
	note A_, 3
	rest
	note G_, 3
	note_type 1, DOTTED_EIGHTH
	note E_, 3
	note_type 1, SIXTEENTH
	rest
	note_type 1, DOTTED_EIGHTH
	note C_, 3
	note_type 1, SIXTEENTH
	rest
	note_type 1, DOTTED_EIGHTH
	note G_, 2
	note_type 1, SIXTEENTH
	rest
	note_type 1, DOTTED_EIGHTH
	note C_, 2
	note_type 1, SIXTEENTH
	rest

MusicDataBossBeaten_Noise:
	note_type 1, WHOLE
	drum_rest
	sound_loop

MusicDataBossBeaten_DPCM:
	note_type 1, EIGHTH
	note E_, 4
	note A_, 4
	note A_, 4
	note E_, 4
	note A_, 4
	note A_, 4
	note E_, 4
	note E_, 4
	note C_, 5
	note E_, 4
	note E_, 4
	note C_, 5
	note C_, 5
	note A_, 4
	note E_, 4
	rest
	note D_, 4
	note F_, 4
	note A_, 4
	note C_, 5
	note F_, 4
	note F_, 4
	note F_, 4
	rest
	note E_, 4
	note_type 1, DOTTED_QUARTER
	rest
	note_type 1, WHOLE
	rest
	note_type 1, EIGHTH
	note E_, 4
	rest
