MusicDataGameOver:
MusicDataGameOver_Square2:
	note_type 4, EIGHTH
	rest
	note_type 4, SIXTEENTH
	note C_, 3
	rest
	rest
	note C_, 3
	note_type 4, EIGHTH
	rest
	note C_, 3
	note F_, 3
	note E_, 3
	sound_ret
MusicDataGameOver_Square1:
	note_type 4, SIXTEENTH
	note G_, 4
	note A_, 4
	note C_, 5
	note G_, 3
	note A_, 3
	note C_, 4
	note G_, 2
	note A_, 2
	note_type 4, EIGHTH
	note C_, 3
	note G_, 2
	note C_, 3
MusicDataGameOver_Triangle:
	note_type 1, EIGHTH
	rest
	note_type 1, SIXTEENTH
	note E_, 4
	rest
	rest
	note E_, 3
	note_type 1, EIGHTH
	rest
	note C_, 3
	note G_, 3
	note C_, 3
MusicDataGameOver_Noise:
	note_type 1, EIGHTH
	drum_rest
	sound_loop
MusicDataGameOver_DPCM:
	note_type 1, EIGHTH
	rest
	note_type 1, SIXTEENTH
	note E_, 4
	rest
	rest
	note E_, 3
	note_type 1, EIGHTH
	rest
	note C_, 3
	note G_, 3
	note C_, 3
