MusicDataMushroomBonusChance:
MusicDataMushroomBonusChance_Square2:
	note_type 1, SIXTEENTH
	note G_, 3
	note A_, 3
	note A#, 3
	note B_, 3
	rest
	note E_, 4
	note_type 1, QUARTER
	note D_, 4
	sound_ret
MusicDataMushroomBonusChance_Square1:
	note_type 1, SIXTEENTH
	note D_, 3
	note E_, 3
	note F_, 3
	note G_, 3
	rest
	note C_, 4
	note_type 1, QUARTER
	note B_, 3
MusicDataMushroomBonusChance_Triangle:
	note_type 1, SIXTEENTH
	note B_, 4
	note C_, 5
	note C#, 5
	note D_, 5
	rest
	note G_, 5
	note_type 1, QUARTER
	note F_, 5
MusicDataMushroomBonusChance_Noise:
	note_type 1, DOTTED_QUARTER
	drum_rest
	note_type 1, QUARTER
	drum_rest
MusicDataMushroomBonusChance_DPCM:
	note_type 1, SIXTEENTH
	note B_, 3
	note C_, 4
	note C#, 4
	note D_, 4
	rest
	note G_, 4
	note_type 1, QUARTER
	note F_, 4
