MusicDataSpadeGameFanfare:
MusicDataSpadeGameFanfare_Square2:
	note_type 1, QUARTER
	note C_, 4
	note_type 1, SIXTEENTH
	note C_, 4
	rest
	note C_, 4
	rest
	note_type 1, QUARTER
	note C_, 4
	note A#, 3
	note A#, 3
	note D_, 4
	note_type 1, WHOLE
	note C_, 4
	sound_ret

MusicDataSpadeGameFanfare_Square1:
	note_type 1, QUARTER
	note G_, 3
	note_type 1, SIXTEENTH
	note G_, 3
	rest
	note G_, 3
	rest
	note_type 1, QUARTER
	note G_, 3
	note F_, 3
	note F_, 3
	note A#, 3
	note_type 1, WHOLE
	note G_, 3

MusicDataSpadeGameFanfare_Triangle:
	note_type 1, QUARTER
	note C_, 3
	note_type 4, EIGHTH
	note C_, 3
	note C_, 3
	note_type 1, QUARTER
	note C_, 3
	note C_, 3
	note C_, 3
	note C_, 3
	note_type 1, WHOLE
	note C_, 3

MusicDataSpadeGameFanfare_Noise:
	note_type 1, HALF
	drum_rest
	note_type 1, WHOLE
	drum_rest
	drum_rest

MusicDataSpadeGameFanfare_DPCM:
	note_type 1, QUARTER
	note E_, 4
	note_type 1, SIXTEENTH
	note E_, 4
	rest
	note E_, 4
	rest
	note_type 1, QUARTER
	note E_, 4
	note D_, 4
	note D_, 4
	note F_, 4
	note_type 1, WHOLE
	note E_, 4
