MusicDataWarp:
MusicDataWarp_Square2:
	note_type 2, HALF
	note C_, 2
	note B_, 1
	note A#, 1
	note A_, 1
	note G#, 1
	note G_, 1
	note C_, 2
	note B_, 1
	note A#, 1
	note A_, 1
	note G#, 1
	note G_, 1
	note C_, 2
	note B_, 1
	note A#, 1
	note A_, 1
	note G#, 1
	note G_, 1
	note C_, 2
	note B_, 1
	note A#, 1
	note A_, 1
	note G#, 1
	note G_, 1
	sound_ret

MusicDataWarp_Square1:
	note_type 8, HALF
	note C_, 4
	note B_, 3
	note A#, 3
	note A_, 3
	note G#, 3
	note G_, 3
	note C_, 4
	note B_, 3
	note A#, 3
	note A_, 3
	note G#, 3
	note G_, 3
	note C_, 4
	note B_, 3
	note A#, 3
	note A_, 3
	note G#, 3
	note G_, 3
	note C_, 4
	note B_, 3
	note A#, 3
	note A_, 3
	note G#, 3
	note G_, 3

MusicDataWarp_Triangle:
	note_type 1, WHOLE
	rest
	note_type 8, HALF_TRIPLET
	note D_, 4
	note D_, 4
	note C#, 4
	note C_, 4
	note B_, 3
	note A#, 3
	note A_, 3
	note G#, 3
	note G_, 3
	note F#, 3
	note F_, 3
	note E_, 3
	note D#, 3
	note D_, 3
	note C#, 3
	note C_, 3
	note B_, 2
	note B_, 2
	note C_, 3
	note C#, 3
	note D_, 3
	note D#, 3
	note E_, 3
	note F_, 3
	note F#, 3
	note G_, 3
	note G#, 3
	note A_, 3
	note A#, 3
	note B_, 3
	note C_, 4
	note C#, 4
	note D_, 4
	note D#, 4
	note_type 1, HALF_TRIPLET
	note E_, 4
	sound_loop
