MusicDataOverworld1:
MusicDataOverworld1_Square2:
	note_type 3, QUARTER_TRIPLET
	rest
	rest
	note D_, 6
	note C#, 6
	rest
	note C_, 6
	note A_, 5
	rest
	note F#, 5
	note E_, 5
	rest
	note D#, 5
	note_type 3, EIGHTH
	note D_, 5
	rest
	note D_, 6
	rest
	note_type 3, HALF_TRIPLET
	note D_, 5
	rest
	rest
	sound_ret
MusicDataOverworld1_Square1:
	note_type 1, QUARTER_TRIPLET
	rest
	rest
	note B_, 3
	note A#, 3
	rest
	note A_, 3
	note F_, 3
	rest
	note D_, 3
	note C_, 3
	rest
	note B_, 2
	note_type 1, EIGHTH
	note B_, 2
	rest
	note B_, 3
	rest
	note_type 1, HALF_TRIPLET
	note B_, 2
	rest
	rest
MusicDataOverworld1_Triangle:
	note_type 3, QUARTER_TRIPLET
	rest
	rest
	note G_, 4
	note F#, 4
	rest
	note F_, 4
	note D_, 4
	rest
	note B_, 3
	note A_, 3
	rest
	note G#, 3
	note_type 3, EIGHTH
	note G_, 3
	rest
	note G_, 4
	rest
	note_type 3, HALF_TRIPLET
	note G_, 3
	rest
	rest
MusicDataOverworld1_Noise:
	note_type 1, WHOLE
	drum_rest
	note_type 1, QUARTER
	drum_note Noise_OWClosedHihat
	note_type 1, QUARTER_TRIPLET
	drum_note Noise_OWClosedHihat
	drum_note Noise_OWClosedHihat
	drum_note Noise_OWClosedHihat
	drum_note Noise_OWClosedHihat
	drum_rest
	drum_note Noise_OWClosedHihat
	drum_note Noise_OWClosedHihat
	drum_note Noise_OWClosedHihat
	drum_note Noise_OWClosedHihat
MusicDataOverworld1_DPCM:
	note_type 1, QUARTER_TRIPLET
	rest
	rest
	note D_, 4
	note C#, 4
	rest
	note C_, 4
	note B_, 3
	rest
	note G_, 3
	note F_, 3
	rest
	note E_, 3
	note_type 1, EIGHTH
	note D_, 3
	rest
	note D_, 4
	rest
	note D_, 3
	rest
	note_type 1, EIGHTH_TRIPLET
	note G_, 2
	note F#, 2
	note F_, 2
	note E_, 2
	note D#, 2
	note D_, 2
