MusicDataOverworld5:
MusicDataOverworld5_Square2:
	note_type 4, QUARTER_TRIPLET
	note A_, 4
	rest
	note G_, 4
	note E_, 4
	rest
	note_type 4, WHOLE_TRIPLET
	note C_, 4
	note_type 4, HALF
	rest
	note_type 4, QUARTER_TRIPLET
	note F_, 4
	rest
	note_type 4, QUARTER
	note E_, 4
	rest
	note E_, 4
	rest
	note E_, 4
	note_type 4, QUARTER_TRIPLET
	note F_, 4
	note D#, 4
	rest
	note E_, 4
	note F_, 4
	rest
	note D#, 4
	note E_, 4
	rest
	note_type 4, WHOLE_TRIPLET
	note B_, 4
	note_type 4, QUARTER
	note G#, 4
	note F_, 4
	note E_, 4
	note_type 4, QUARTER_TRIPLET
	note D_, 4
	note_type 4, EIGHTH_TRIPLET
	note E_, 4
	note D_, 4
	note_type 4, QUARTER_TRIPLET
	note C_, 4
	note B_, 3
	rest
	note C_, 4
	note D_, 4
	rest
	note C_, 4
	note B_, 3
	rest
	note_type 4, HALF
	note C_, 4
	note_type 4, QUARTER_TRIPLET
	note C_, 4
	note_type 4, QUARTER
	note B_, 3
	note C_, 4
	note_type 4, HALF_TRIPLET
	rest
	note_type 4, WHOLE_TRIPLET
	note D_, 4
	note_type 4, QUARTER
	note C#, 4
	note_type 4, HALF_TRIPLET
	note D_, 4
	note_type 4, WHOLE_TRIPLET
	note A_, 4
	note_type 4, QUARTER
	note F#, 4
	note G_, 4
	note A_, 4
	note_type 4, WHOLE_TRIPLET
	note B_, 4
	note_type 4, QUARTER_TRIPLET
	rest
	note B_, 4
	note_type 4, WHOLE_TRIPLET
	note A_, 4
	note_type 4, QUARTER_TRIPLET
	rest
	note A_, 4
	note_type 4, WHOLE_TRIPLET
	note G#, 4
	note_type 4, QUARTER_TRIPLET
	rest
	note G#, 4
	note G_, 4
	rest
	note_type 4, WHOLE_TRIPLET
	rest
	sound_ret
MusicDataOverworld5_Square1:
	note_type 4, QUARTER_TRIPLET
	note C_, 4
	rest
	note B_, 3
	note G_, 3
	rest
	note_type 4, WHOLE_TRIPLET
	note E_, 3
	note_type 3, EIGHTH
	note C_, 3
	note_type 3, EIGHTH_TRIPLET
	rest
	note_type 4, QUARTER_TRIPLET
	note F#, 3
	note G_, 3
	rest
	note G#, 3
	note A_, 3
	rest
	note C_, 4
	note_type 3, EIGHTH
	note C_, 3
	note_type 3, EIGHTH_TRIPLET
	rest
	note_type 4, QUARTER
	rest
	note C_, 4
	rest
	note E_, 3
	note_type 4, QUARTER_TRIPLET
	note F_, 3
	note D#, 3
	rest
	note E_, 3
	note F_, 3
	rest
	note D#, 3
	note E_, 3
	rest
	note_type 4, WHOLE_TRIPLET
	note B_, 3
	note_type 4, QUARTER
	note G#, 3
	note F_, 3
	note E_, 3
	note_type 4, QUARTER_TRIPLET
	note D_, 3
	note_type 4, EIGHTH_TRIPLET
	note E_, 3
	note D_, 3
	note_type 4, QUARTER_TRIPLET
	note C_, 3
	note B_, 2
	rest
	note C_, 3
	note D_, 3
	rest
	note C_, 3
	note B_, 2
	rest
	note_type 4, HALF
	note C_, 3
	note_type 4, QUARTER_TRIPLET
	note C_, 3
	note_type 4, QUARTER
	note B_, 2
	note C_, 3
	note_type 4, HALF_TRIPLET
	rest
	note_type 4, WHOLE_TRIPLET
	note D_, 3
	note_type 4, QUARTER
	note C#, 3
	note_type 4, HALF_TRIPLET
	note D_, 3
	note_type 4, WHOLE_TRIPLET
	note A_, 3
	note_type 4, QUARTER
	note F#, 3
	note G_, 3
	note A_, 3
	note_type 4, QUARTER_TRIPLET
	note B_, 3
	rest
	note A#, 3
	note B_, 3
	rest
	note B_, 3
	note A_, 3
	rest
	note G#, 3
	note A_, 3
	rest
	note A_, 3
	note G#, 3
	rest
	note G_, 3
	note G#, 3
	rest
	note G#, 3
	note G_, 3
	rest
	note D_, 4
	note B_, 3
	rest
	note G_, 3

MusicDataOverworld5_Triangle:
	note_type 1, QUARTER
	rest
	note_type 1, QUARTER_TRIPLET
	note F_, 5
	rest
	note F_, 5
	note_type 1, QUARTER
	rest
	note_type 1, EIGHTH
	note E_, 5
	note_type 1, DOTTED_QUARTER
	rest
	note_type 1, EIGHTH
	note F_, 5
	rest
	note E_, 5
	rest
	note_type 1, HALF_TRIPLET
	rest
	note_type 1, EIGHTH
	note E_, 5
	rest
	note_type 1, WHOLE_TRIPLET
	rest
	note_type 1, HALF_TRIPLET
	rest
	note_type 1, SIXTEENTH
	rest
	note_type 1, EIGHTH_TRIPLET
	note D_, 4
	note G#, 4
	note_type 1, QUARTER_TRIPLET
	rest
	note_type 1, SIXTEENTH_TRIPLET
	note G#, 4
	note D_, 4
	note_type 1, QUARTER
	rest
	note_type 1, EIGHTH_TRIPLET
	rest
	note_type 1, EIGHTH_TRIPLET
	note D_, 4
	note G#, 4
	note_type 1, QUARTER_TRIPLET
	rest
	note_type 1, SIXTEENTH_TRIPLET
	note G#, 4
	note D_, 4
	note_type 1, DOTTED_QUARTER
	rest
	note_type 1, SIXTEENTH_TRIPLET
	note D_, 4
	note G#, 4
	rest
	rest
	note_type 1, SIXTEENTH_TRIPLET
	note G#, 4
	note D_, 4
	rest
	rest
	note_type 1, EIGHTH_TRIPLET
	note D_, 4
	note G#, 4
	note_type 1, QUARTER_TRIPLET
	rest
	note_type 1, SIXTEENTH_TRIPLET
	note G#, 4
	note D_, 4
	note_type 1, EIGHTH_TRIPLET
	rest
	note_type 1, EIGHTH_TRIPLET
	note D_, 4
	note G#, 4
	note_type 1, QUARTER_TRIPLET
	rest
	note_type 1, SIXTEENTH_TRIPLET
	note G#, 4
	note D_, 4
	note_type 1, SIXTEENTH
	rest
	note_type 1, HALF_TRIPLET
	rest
	note_type 1, SIXTEENTH
	rest
	note_type 1, EIGHTH_TRIPLET
	note C_, 4
	note A_, 4
	note_type 1, QUARTER_TRIPLET
	rest
	note_type 1, SIXTEENTH_TRIPLET
	note A_, 4
	note C_, 4
	note_type 1, QUARTER
	rest
	note_type 1, EIGHTH_TRIPLET
	rest
	note_type 1, EIGHTH_TRIPLET
	note C_, 4
	note A_, 4
	note_type 1, QUARTER_TRIPLET
	rest
	note_type 1, SIXTEENTH_TRIPLET
	note A_, 4
	note C_, 4
	note_type 1, DOTTED_QUARTER
	rest
	note_type 1, SIXTEENTH_TRIPLET
	note C_, 4
	note A_, 4
	rest
	rest
	note_type 1, SIXTEENTH_TRIPLET
	note A_, 4
	note C_, 4
	rest
	rest
	note_type 1, EIGHTH_TRIPLET
	note C_, 4
	note A_, 4
	note_type 1, QUARTER_TRIPLET
	rest
	note_type 1, SIXTEENTH_TRIPLET
	note A_, 4
	note C_, 4
	note_type 1, EIGHTH_TRIPLET
	rest
	note_type 1, EIGHTH_TRIPLET
	note C_, 4
	note A_, 4
	note_type 1, QUARTER_TRIPLET
	rest
	note_type 1, SIXTEENTH_TRIPLET
	note A_, 4
	note C_, 4
	note_type 1, SIXTEENTH
	rest
	note_type 1, HALF_TRIPLET
	rest
	note_type 1, SIXTEENTH
	rest
	note_type 1, EIGHTH_TRIPLET
	note D_, 4
	note A_, 4
	note_type 1, QUARTER_TRIPLET
	rest
	note_type 1, SIXTEENTH_TRIPLET
	note A_, 4
	note D_, 4
	note_type 1, QUARTER
	rest
	note_type 1, EIGHTH_TRIPLET
	rest
	note_type 1, EIGHTH_TRIPLET
	note D_, 4
	note A_, 4
	note_type 1, QUARTER_TRIPLET
	rest
	note_type 1, SIXTEENTH_TRIPLET
	note A_, 4
	note D_, 4
	note_type 1, DOTTED_QUARTER
	rest
	note_type 1, SIXTEENTH_TRIPLET
	note D_, 4
	note A_, 4
	rest
	rest
	note_type 1, SIXTEENTH_TRIPLET
	note A_, 4
	note D_, 4
	rest
	rest
	note_type 1, EIGHTH_TRIPLET
	note D_, 4
	note A_, 4
	note_type 1, QUARTER_TRIPLET
	rest
	note_type 1, SIXTEENTH_TRIPLET
	note A_, 4
	note D_, 4
	note_type 1, EIGHTH_TRIPLET
	rest
	note_type 1, EIGHTH_TRIPLET
	note D_, 4
	note A_, 4
	note_type 1, QUARTER_TRIPLET
	rest
	note_type 1, SIXTEENTH_TRIPLET
	note A_, 4
	note D_, 4
	note_type 1, SIXTEENTH
	rest
	note_type 1, HALF_TRIPLET
	rest
	note_type 1, SIXTEENTH
	rest
	note_type 1, EIGHTH_TRIPLET
	note B_, 3
	note G_, 4
	note_type 1, QUARTER_TRIPLET
	rest
	note_type 1, SIXTEENTH_TRIPLET
	note G_, 4
	note B_, 3
	note_type 1, QUARTER
	rest
	note_type 1, EIGHTH_TRIPLET
	rest
	note_type 1, EIGHTH_TRIPLET
	note A_, 3
	note F_, 4
	note_type 1, QUARTER_TRIPLET
	rest
	note_type 1, SIXTEENTH_TRIPLET
	note F_, 4
	note A_, 3
	note_type 1, DOTTED_QUARTER
	rest
	note_type 1, SIXTEENTH_TRIPLET
	note G#, 3
	note F_, 4
	rest
	rest
	note_type 1, SIXTEENTH_TRIPLET
	note F_, 4
	note G#, 3
	rest
	rest
	note_type 1, EIGHTH_TRIPLET
	note G_, 3
	note F_, 4
	note_type 1, QUARTER_TRIPLET
	rest
	note_type 1, SIXTEENTH_TRIPLET
	note F_, 4
	note G_, 3
	note_type 1, EIGHTH_TRIPLET
	rest
	note_type 1, EIGHTH_TRIPLET
	note G_, 3
	note F_, 4
	note_type 1, QUARTER_TRIPLET
	rest
	note_type 1, SIXTEENTH_TRIPLET
	note F_, 4
	note G_, 3
	note_type 1, SIXTEENTH
	rest

MusicDataOverworld5_Noise:
	note_type 1, QUARTER
	drum_note Noise_Kick
	drum_note Noise_Snare
	drum_note Noise_Kick
	note_type 1, DOTTED_EIGHTH
	drum_note Noise_Snare
	note_type 1, SIXTEENTH
	drum_note Noise_Kick
	note_type 1, QUARTER_TRIPLET
	drum_note Noise_Kick
	drum_rest
	drum_note Noise_Snare
	note_type 1, QUARTER
	drum_note Noise_Snare
	drum_note Noise_Kick
	note_type 1, DOTTED_EIGHTH
	drum_note Noise_Snare
	note_type 1, SIXTEENTH
	drum_note Noise_Kick
	note_type 1, QUARTER
	drum_note Noise_Kick
	drum_note Noise_Snare
	drum_note Noise_OpenHihat
	note_type 1, QUARTER_TRIPLET
	drum_note Noise_ClosedHihat
	drum_rest
	drum_note Noise_ClosedHihat
	note_type 1, QUARTER
	drum_note Noise_OpenHihat
	note_type 1, QUARTER_TRIPLET
	drum_note Noise_ClosedHihat
	drum_rest
	drum_note Noise_ClosedHihat
	note_type 1, QUARTER
	drum_note Noise_OpenHihat
	note_type 1, QUARTER_TRIPLET
	drum_note Noise_ClosedHihat
	drum_rest
	drum_note Noise_ClosedHihat
	note_type 1, QUARTER
	drum_note Noise_OpenHihat
	note_type 1, QUARTER_TRIPLET
	drum_note Noise_ClosedHihat
	drum_rest
	drum_note Noise_ClosedHihat
	note_type 1, QUARTER
	drum_note Noise_OpenHihat
	note_type 1, QUARTER_TRIPLET
	drum_note Noise_ClosedHihat
	drum_rest
	drum_note Noise_ClosedHihat
	note_type 1, QUARTER
	drum_note Noise_OpenHihat
	note_type 1, QUARTER_TRIPLET
	drum_note Noise_ClosedHihat
	drum_rest
	drum_note Noise_ClosedHihat
	note_type 1, QUARTER
	drum_note Noise_OpenHihat
	note_type 1, QUARTER_TRIPLET
	drum_note Noise_ClosedHihat
	drum_rest
	drum_note Noise_ClosedHihat
	note_type 1, QUARTER
	drum_note Noise_OpenHihat
	note_type 1, QUARTER_TRIPLET
	drum_note Noise_ClosedHihat
	drum_rest
	drum_note Noise_ClosedHihat
	note_type 1, QUARTER
	drum_note Noise_OpenHihat
	note_type 1, QUARTER_TRIPLET
	drum_note Noise_ClosedHihat
	drum_rest
	drum_note Noise_ClosedHihat
	note_type 1, QUARTER
	drum_note Noise_OpenHihat
	note_type 1, QUARTER_TRIPLET
	drum_note Noise_ClosedHihat
	drum_rest
	drum_note Noise_ClosedHihat
	note_type 1, QUARTER
	drum_note Noise_OpenHihat
	note_type 1, QUARTER_TRIPLET
	drum_note Noise_ClosedHihat
	drum_rest
	drum_note Noise_ClosedHihat
	note_type 1, QUARTER
	drum_note Noise_OpenHihat
	note_type 1, QUARTER_TRIPLET
	drum_note Noise_ClosedHihat
	drum_rest
	drum_note Noise_ClosedHihat
	note_type 1, QUARTER
	drum_note Noise_OpenHihat
	note_type 1, QUARTER_TRIPLET
	drum_note Noise_ClosedHihat
	drum_rest
	drum_note Noise_ClosedHihat
	note_type 1, QUARTER
	drum_note Noise_OpenHihat
	note_type 1, QUARTER_TRIPLET
	drum_note Noise_ClosedHihat
	drum_rest
	drum_note Noise_ClosedHihat
	note_type 1, QUARTER
	drum_note Noise_OpenHihat
	note_type 1, QUARTER_TRIPLET
	drum_note Noise_ClosedHihat
	drum_rest
	drum_note Noise_ClosedHihat
	note_type 1, QUARTER
	drum_note Noise_OpenHihat
	note_type 1, QUARTER_TRIPLET
	drum_note Noise_ClosedHihat
	drum_rest
	drum_note Noise_ClosedHihat

MusicDataOverworld5_DPCM:
	note_type 1, QUARTER_TRIPLET
	note A_, 1
	rest
	rest
	note B_, 1
	rest
	rest
	note C_, 2
	rest
	rest
	note G_, 1
	rest
	rest
	note A_, 1
	rest
	rest
	note B_, 1
	rest
	rest
	note C_, 2
	note_type 1, WHOLE_TRIPLET
	rest
	note_type 1, QUARTER_TRIPLET
	note C_, 2
	note_type 1, HALF
	rest
	note_type 1, QUARTER_TRIPLET
	note E_, 2
	rest
	rest
	note B_, 2
	rest
	rest
	note G#, 2
	rest
	rest
	note F_, 2
	rest
	rest
	note E_, 2
	rest
	rest
	note D_, 2
	rest
	rest
	note B_, 1
	rest
	rest
	note G#, 1
	rest
	rest
	note A_, 1
	rest
	rest
	note B_, 1
	rest
	rest
	note C_, 2
	rest
	rest
	note D_, 2
	rest
	rest
	note E_, 2
	rest
	rest
	note C_, 2
	rest
	rest
	note B_, 1
	rest
	rest
	note A_, 1
	rest
	rest
	note D_, 2
	rest
	rest
	note E_, 2
	rest
	rest
	note F#, 2
	rest
	rest
	note A_, 2
	rest
	rest
	note D_, 2
	rest
	rest
	note A_, 1
	rest
	rest
	note D_, 2
	rest
	rest
	note F#, 2
	rest
	rest
	note G_, 2
	rest
	rest
	note F_, 2
	rest
	rest
	note D_, 2
	rest
	rest
	note B_, 1
	rest
	rest
	note D_, 2
	rest
	rest
	note B_, 1
	rest
	rest
	note A_, 1
	rest
	rest
	note G_, 1
	rest
	rest
