MusicDataOverworld3:
MusicDataOverworld3_Square2:
	note_type 4, HALF_TRIPLET
	rest
	note E_, 4
	rest
	note G_, 4
	note_type 4, QUARTER_TRIPLET
	rest
	note A_, 4
	rest
	note_type 4, WHOLE_TRIPLET
	note C_, 5
	note_type 4, QUARTER
	rest
	note_type 4, QUARTER_TRIPLET
	note A_, 4
	rest
	note G_, 4
	note E_, 4
	rest
	note C_, 4
	note D_, 4
	rest
	note E_, 4
	note D_, 4
	rest
	note E_, 4
	note D_, 4
	rest
	note A_, 3
	rest
	rest
	note_type 4, EIGHTH
	note D_, 4
	note_type 4, QUARTER_TRIPLET
	rest
	note_type 4, SIXTEENTH
	note A_, 3
	note D_, 4
	note A_, 3
	note D_, 4
	note A_, 3
	note D_, 4
	note A_, 3
	note D_, 4
	note A_, 3
	note D_, 4
	note A_, 3
	note D_, 4
	note A_, 3
	note D_, 4
	note_type 4, QUARTER_TRIPLET
	note D_, 4
	rest
	note E_, 4
	note D_, 4
	rest
	note E_, 4
	note D_, 4
	rest
	note_type 4, QUARTER
	note E_, 4
	note A_, 4
	note_type 4, QUARTER_TRIPLET
	note G_, 4
	note A_, 4
	rest
	note G_, 4
	sound_ret

MusicDataOverworld4:
MusicDataOverworld4_Square2:
	note_type 4, QUARTER_TRIPLET
	note E_, 4
	rest
	note D_, 4
	note C_, 4
	rest
	note_type 4, WHOLE_TRIPLET
	note E_, 4
	note_type 4, SIXTEENTH
	note G_, 3
	note E_, 4
	note G_, 3
	note E_, 4
	note G_, 3
	note E_, 4
	note G_, 3
	note E_, 4
	note G_, 3
	note E_, 4
	note G_, 3
	note E_, 4
	note_type 4, HALF_TRIPLET
	rest
	note G_, 4
	note D#, 4
	note B_, 3
	note A_, 3
	note G_, 3
	sound_ret

MusicDataOverworld3_Square1:
	note_type 4, HALF_TRIPLET
	rest
	note_type 4, QUARTER_TRIPLET
	note G_, 3
	note_type 3, EIGHTH
	note G_, 2
	rest
	note_type 4, HALF_TRIPLET
	note C_, 4
	note_type 4, QUARTER_TRIPLET
	rest
	note E_, 4
	rest
	note_type 4, WHOLE_TRIPLET
	note G_, 4
	note_type 3, EIGHTH
	note G_, 2
	rest
	note_type 4, QUARTER_TRIPLET
	note E_, 4
	rest
	note C_, 4
	note A_, 3
	rest
	note G_, 3
	note F#, 3
	rest
	note G_, 3
	note F#, 3
	rest
	note G_, 3
	note F#, 3
	rest
	note D_, 3
	note_type 3, EIGHTH
	note A_, 2
	note_type 3, EIGHTH_TRIPLET
	rest
	note_type 4, EIGHTH
	note F#, 3
	note_type 4, QUARTER_TRIPLET
	rest
	note_type 4, SIXTEENTH
	note D_, 3
	note F#, 3
	note D_, 3
	note F#, 3
	note D_, 3
	note F#, 3
	note D_, 3
	note F#, 3
	note D_, 3
	note F#, 3
	note D_, 3
	note F#, 3
	note D_, 3
	note F#, 3
	note_type 4, QUARTER_TRIPLET
	note F_, 3
	rest
	note G_, 3
	note F_, 3
	rest
	note G_, 3
	note F_, 3
	rest
	note G_, 3
	note_type 3, EIGHTH
	note A_, 2
	note_type 3, EIGHTH_TRIPLET
	rest
	note_type 4, QUARTER
	note C_, 4
	note_type 4, QUARTER_TRIPLET
	note B_, 3
	note C_, 4
	rest
	note B_, 3

MusicDataOverworld4_Square1:
	note_type 4, QUARTER_TRIPLET
	note G_, 3
	rest
	note F_, 3
	note E_, 3
	rest
	note_type 4, WHOLE_TRIPLET
	note C_, 4
	note_type 4, SIXTEENTH
	note E_, 3
	note C_, 4
	note E_, 3
	note C_, 4
	note E_, 3
	note C_, 4
	note E_, 3
	note C_, 4
	note E_, 3
	note C_, 4
	note E_, 3
	note C_, 4
	note_type 3, EIGHTH
	note B_, 2
	note_type 3, EIGHTH_TRIPLET
	rest
	note_type 4, QUARTER_TRIPLET
	note B_, 3
	note_type 3, QUARTER_TRIPLET
	note B_, 2
	note_type 4, HALF_TRIPLET
	note A_, 3
	note G_, 3
	note_type 4, QUARTER_TRIPLET
	note F_, 3
	note_type 3, QUARTER_TRIPLET
	note B_, 2
	note_type 4, HALF_TRIPLET
	note D#, 3

MusicDataOverworld3_Triangle:
	note_type 1, QUARTER
	rest
	note_type 1, EIGHTH
	note E_, 5
	note_type 1, DOTTED_QUARTER
	rest
	note_type 1, EIGHTH
	note E_, 5
	note_type 1, DOTTED_QUARTER
	rest
	note_type 1, EIGHTH
	note E_, 5
	note_type 1, DOTTED_QUARTER
	rest
	note_type 1, QUARTER_TRIPLET
	note E_, 5
	rest
	note E_, 5
	note_type 1, QUARTER
	rest
	note_type 1, EIGHTH
	note F#, 5
	note_type 1, DOTTED_QUARTER
	rest
	note_type 1, EIGHTH
	note F#, 5
	note_type 1, DOTTED_QUARTER
	rest
	note_type 1, EIGHTH
	note F#, 5
	note_type 1, DOTTED_QUARTER
	rest
	note_type 1, QUARTER_TRIPLET
	note F#, 5
	rest
	note F#, 5
	note_type 1, QUARTER
	rest
	note_type 1, EIGHTH
	note F_, 5
	note_type 1, DOTTED_QUARTER
	rest
	note_type 1, EIGHTH
	note F_, 5
	note_type 1, DOTTED_QUARTER
	rest
	note_type 1, EIGHTH
	note F_, 5
	rest

MusicDataOverworld4_Triangle:
	note_type 1, QUARTER
	rest
	note_type 1, QUARTER_TRIPLET
	note F_, 5
	rest
	note F_, 5
	note_type 1, QUARTER
	rest
	note_type 1, EIGHTH
	note E_, 5
	note_type 1, DOTTED_QUARTER
	rest
	note_type 1, EIGHTH
	note E_, 5
	rest
	note D#, 5
	rest
	note D#, 5
	rest
	note D#, 5
	rest
	note D#, 5
	rest

MusicDataOverworld3_Noise:
	note_type 1, QUARTER
	drum_note Noise_OWKick
	note_type 1, DOTTED_EIGHTH
	drum_note Noise_OWSnare
	note_type 1, SIXTEENTH
	drum_note Noise_OWKick
	note_type 1, QUARTER
	drum_note Noise_OWKick
	note_type 1, DOTTED_EIGHTH
	drum_note Noise_OWSnare
	note_type 1, SIXTEENTH
	drum_note Noise_OWKick
	note_type 1, QUARTER
	drum_note Noise_OWKick
	note_type 1, DOTTED_EIGHTH
	drum_note Noise_OWSnare
	note_type 1, SIXTEENTH
	drum_note Noise_OWKick
	note_type 1, QUARTER_TRIPLET
	drum_note Noise_OWKick
	drum_rest
	drum_note Noise_OWSnare
	note_type 1, QUARTER
	drum_note Noise_OWSnare
	drum_note Noise_OWKick
	note_type 1, DOTTED_EIGHTH
	drum_note Noise_OWSnare
	note_type 1, SIXTEENTH
	drum_note Noise_OWKick
	note_type 1, QUARTER
	drum_note Noise_OWKick
	note_type 1, DOTTED_EIGHTH
	drum_note Noise_OWSnare
	note_type 1, SIXTEENTH
	drum_note Noise_OWKick
	note_type 1, QUARTER
	drum_note Noise_OWKick
	note_type 1, DOTTED_EIGHTH
	drum_note Noise_OWSnare
	note_type 1, SIXTEENTH
	drum_note Noise_OWKick
	note_type 1, QUARTER_TRIPLET
	drum_note Noise_OWKick
	drum_rest
	drum_note Noise_OWSnare
	note_type 1, QUARTER
	drum_note Noise_OWSnare
	drum_note Noise_OWKick
	note_type 1, DOTTED_EIGHTH
	drum_note Noise_OWSnare
	note_type 1, SIXTEENTH
	drum_note Noise_OWKick
	note_type 1, QUARTER
	drum_note Noise_OWKick
	drum_note Noise_OWSnare
	drum_note Noise_OWKick
	note_type 1, DOTTED_EIGHTH
	drum_note Noise_OWSnare
	note_type 1, SIXTEENTH
	drum_note Noise_OWKick

MusicDataOverworld4_Noise:
	note_type 1, QUARTER
	drum_note Noise_OWKick
	drum_note Noise_OWSnare
	drum_note Noise_OWKick
	note_type 1, DOTTED_EIGHTH
	drum_note Noise_OWSnare
	note_type 1, SIXTEENTH
	drum_note Noise_OWKick
	note_type 1, QUARTER_TRIPLET
	drum_note Noise_OWKick
	drum_rest
	drum_note Noise_OWSnare
	note_type 1, QUARTER
	drum_note Noise_OWSnare
	drum_note Noise_OWKick
	note_type 1, DOTTED_EIGHTH
	drum_note Noise_OWSnare
	note_type 1, SIXTEENTH
	drum_note Noise_OWKick
	note_type 1, QUARTER
	drum_note Noise_OWKick
	drum_note Noise_OWSnare

MusicDataOverworld3_DPCM:
	note_type 1, QUARTER_TRIPLET
	note C_, 2
	rest
	rest
	note D_, 2
	rest
	rest
	note E_, 2
	rest
	rest
	note G_, 2
	rest
	rest
	note A_, 2
	rest
	rest
	note G_, 2
	rest
	rest
	note E_, 2
	rest
	rest
	note C_, 2
	rest
	rest
	note D_, 2
	rest
	rest
	note E_, 2
	rest
	rest
	note F#, 2
	rest
	rest
	note A_, 1
	rest
	rest
	note D_, 2
	rest
	note E_, 2
	note C_, 2
	rest
	rest
	note B_, 1
	rest
	rest
	note A_, 1
	rest
	rest
	note G_, 1
	rest
	rest
	note G_, 2
	rest
	rest
	note F_, 2
	rest
	rest
	note D_, 2
	rest
	rest
	note B_, 1
	rest
	rest
	note G_, 1
	rest
	rest

MusicDataOverworld4_DPCM:
	note A_, 1
	rest
	rest
	note B_, 1
	rest
	rest
	note C_, 2
	rest
	rest
	note C#, 2
	rest
	rest
	note D_, 2
	rest
	rest
	note D#, 2
	rest
	rest
	note E_, 2
	rest
	note B_, 1
	note A_, 1
	rest
	rest
	note G_, 1
	rest
	rest
	note B_, 1
	rest
	rest
