MusicDataOverworld2:
MusicDataOverworld2_Square2:
	note_type 3, WHOLE
	note E_, 4
	note D#, 4
	note D_, 4
	note C#, 4
	note_type 3, HALF
	note F_, 4
	note F#, 4
	note G_, 4
	note A_, 4
	note_type 3, WHOLE
	rest
	rest
	sound_ret

MusicDataOverworld2_Square1:
	note_type 2, QUARTER_TRIPLET
	note C_, 4
	rest
	note E_, 3
	note G_, 3
	rest
	note_type 2, HALF_TRIPLET
	note C_, 4
	note_type 2, QUARTER_TRIPLET
	rest
	note E_, 3
	note G_, 3
	rest
	note C_, 4
	note D#, 3
	note G_, 3
	note B_, 3
	note D#, 4
	rest
	note_type 2, QRT_HF_TIE
	note B_, 3
	note_type 2, HALF_TRIPLET
	rest
	note_type 2, QUARTER_TRIPLET
	note A#, 3
	rest
	note D_, 3
	note G_, 3
	rest
	note_type 2, HALF_TRIPLET
	note A#, 3
	note_type 2, QUARTER_TRIPLET
	rest
	note D_, 3
	note G_, 3
	rest
	note A#, 3
	note E_, 3
	note A_, 3
	note C#, 4
	note E_, 4
	rest
	note_type 2, QRT_HF_TIE
	note C#, 4
	note_type 2, QUARTER_TRIPLET
	rest
	note E_, 4
	note A_, 4
	rest
	note G_, 4
	note A_, 4
	rest
	note_type 2, HALF_TRIPLET
	note F#, 4
	note_type 2, QUARTER_TRIPLET
	rest
	note A_, 4
	note G_, 4
	rest
	note F#, 4
	note E_, 4
	rest
	note D#, 4
	note E_, 4
	rest
	note_type 2, HALF_TRIPLET
	note C#, 4
	note_type 2, QUARTER_TRIPLET
	rest
	note A_, 3
	note B_, 3
	rest
	note C#, 4
	note D_, 4
	rest
	note C_, 4
	note D_, 4
	rest
	note_type 2, HALF_TRIPLET
	note G_, 3
	note_type 2, QUARTER_TRIPLET
	rest
	note C_, 4
	note B_, 3
	rest
	note_type 2, QRT_HF_TIE
	note G_, 3
	note_type 2, WHOLE_TRIPLET
	rest
	rest

MusicDataOverworld2_Triangle:
	note_type 3, QUARTER_TRIPLET
	note G_, 4
	rest
	note C_, 4
	note E_, 4
	rest
	note_type 3, HALF_TRIPLET
	note G_, 4
	note_type 3, QUARTER_TRIPLET
	rest
	note C_, 4
	note E_, 4
	rest
	note G_, 4
	note B_, 3
	note D#, 4
	note G_, 4
	note B_, 4
	rest
	note_type 3, HALF
	note A_, 4
	note_type 3, QUARTER_TRIPLET
	rest
	note G_, 4
	rest
	note A#, 3
	note D_, 4
	rest
	note_type 3, HALF_TRIPLET
	note G_, 4
	note_type 3, QUARTER_TRIPLET
	rest
	note A#, 3
	note D_, 4
	rest
	note G_, 4
	note C#, 4
	note E_, 4
	note G_, 4
	note B_, 4
	rest
	note_type 3, HALF
	note A_, 4
	note_type 3, QUARTER_TRIPLET
	note B_, 4
	note C_, 5
	rest
	note B_, 4
	note C_, 5
	rest
	note_type 3, HALF_TRIPLET
	note A_, 4
	note_type 3, QUARTER_TRIPLET
	rest
	note C_, 5
	note B_, 4
	rest
	note A_, 4
	note G_, 4
	rest
	note F#, 4
	note G_, 4
	rest
	note_type 3, HALF_TRIPLET
	note E_, 4
	note_type 3, QUARTER_TRIPLET
	rest
	note C#, 4
	note D_, 4
	rest
	note E_, 4
	note F_, 4
	rest
	note E_, 4
	note F_, 4
	rest
	note_type 3, HALF_TRIPLET
	note B_, 3
	note_type 3, QUARTER_TRIPLET
	rest
	note E_, 4
	note D_, 4
	rest
	note_type 3, HALF
	note C_, 4
	rest
	note_type 3, QUARTER_TRIPLET
	rest

MusicDataOverworld2_Noise:
	note_type 1, QUARTER
	drum_note Noise_Kick
	note_type 1, DOTTED_EIGHTH
	drum_note Noise_Snare
	note_type 1, SIXTEENTH
	drum_note Noise_Kick
	note_type 1, QUARTER
	drum_note Noise_Kick
	drum_note Noise_Snare
	drum_note Noise_Kick
	note_type 1, DOTTED_EIGHTH
	drum_note Noise_Snare
	note_type 1, SIXTEENTH
	drum_note Noise_Kick
	note_type 1, DOTTED_EIGHTH
	drum_note Noise_Kick
	note_type 1, SIXTEENTH
	drum_note Noise_Snare
	note_type 1, QUARTER
	drum_note Noise_Snare
	drum_note Noise_Kick
	note_type 1, DOTTED_EIGHTH
	drum_note Noise_Snare
	note_type 1, SIXTEENTH
	drum_note Noise_Kick
	note_type 1, QUARTER
	drum_note Noise_Kick
	drum_note Noise_Snare
	drum_note Noise_Kick
	note_type 1, DOTTED_EIGHTH
	drum_note Noise_Snare
	note_type 1, SIXTEENTH
	drum_note Noise_Kick
	note_type 1, DOTTED_EIGHTH
	drum_note Noise_Kick
	note_type 1, SIXTEENTH
	drum_note Noise_Snare
	note_type 1, QUARTER
	drum_note Noise_Snare
	drum_note Noise_Kick
	note_type 1, DOTTED_EIGHTH
	drum_note Noise_Snare
	note_type 1, SIXTEENTH
	drum_note Noise_Kick
	note_type 1, QUARTER
	drum_note Noise_Kick
	drum_note Noise_Snare
	drum_note Noise_Kick
	note_type 1, DOTTED_EIGHTH
	drum_note Noise_Snare
	note_type 1, SIXTEENTH
	drum_note Noise_Kick
	note_type 1, DOTTED_EIGHTH
	drum_note Noise_Kick
	note_type 1, SIXTEENTH
	drum_note Noise_Snare
	note_type 1, QUARTER
	drum_note Noise_Snare
	drum_note Noise_Kick
	note_type 1, DOTTED_EIGHTH
	drum_note Noise_Kick
	note_type 1, SIXTEENTH
	drum_note Noise_Kick
	note_type 1, QUARTER
	drum_note Noise_Kick
	drum_note Noise_Snare
	drum_note Noise_Kick
	note_type 1, SIXTEENTH
	drum_note Noise_Kick
	drum_note Noise_Kick
	drum_note Noise_Kick
	drum_note Noise_Kick
	note_type 1, DOTTED_EIGHTH
	drum_note Noise_Kick
	note_type 1, SIXTEENTH
	drum_note Noise_Snare
	note_type 1, QUARTER
	drum_note Noise_Snare

MusicDataOverworld2_DPCM:
	note_type 1, QUARTER_TRIPLET
	note C_, 2
	rest
	rest
	note G_, 2
	rest
	rest
	note C_, 2
	rest
	rest
	note G_, 2
	rest
	rest
	note B_, 1
	rest
	rest
	note G_, 2
	rest
	rest
	note B_, 1
	rest
	rest
	note G_, 2
	rest
	rest
	note A#, 1
	rest
	rest
	note G_, 2
	rest
	rest
	note A#, 1
	rest
	rest
	note G_, 2
	rest
	rest
	note A_, 1
	rest
	rest
	note G_, 2
	rest
	rest
	note A_, 1
	rest
	rest
	note G_, 2
	rest
	rest
	note F_, 1
	rest
	rest
	note F_, 2
	rest
	rest
	note F#, 1
	rest
	rest
	note F#, 2
	rest
	rest
	note G_, 1
	rest
	rest
	note G_, 2
	rest
	rest
	note A_, 1
	rest
	rest
	note A_, 2
	rest
	rest
	note D_, 2
	rest
	rest
	note F_, 2
	rest
	rest
	note G_, 1
	rest
	rest
	note D_, 2
	rest
	rest
	note C_, 2
	rest
	rest
	note G_, 1
	note_type 1, EIGHTH_TRIPLET
	note G#, 1
	note A_, 1
	note A#, 1
	note B_, 1
	note_type 1, EIGHTH
	note C_, 2
	note_type 1, DOTTED_QUARTER
	rest
