
MusicDataEnding5:
MusicDataEnding5_Square2:
	note_type 3, EIGHTH
	note E_, 5
	note F_, 5
	note G_, 5
	note D_, 5
	rest
	note D_, 5
	rest
	note D_, 5
	note C_, 5
	note D_, 5
	note E_, 5
	note B_, 4
	rest
	note B_, 4
	rest
	note G_, 4
	note A_, 4
	note B_, 4
	note C_, 5
	note G_, 4
	rest
	note G_, 4
	note F#, 4
	note G_, 4
	note A_, 4
	note B_, 4
	note C_, 5
	note B_, 4
	rest
	note C_, 5
	note D_, 5
	rest
	note E_, 5
	note F_, 5
	note G_, 5
	note D_, 5
	rest
	note D_, 5
	note G_, 5
	note B_, 5
	note C_, 6
	note D_, 6
	note C_, 6
	note B_, 5
	rest
	note A_, 5
	note G_, 5
	note F_, 5
	note E_, 5
	note F_, 5
	note G_, 5
	note D_, 5
	rest
	note D_, 5
	note C_, 5
	note B_, 4
	note C_, 5
	rest
	note_type 3, DOTTED_HALF
	rest
	note_type 3, EIGHTH
	note C_, 5
	note D_, 5
	note C_, 5
	note D_, 5
	rest
	note D#, 5
	note F_, 5
	note G_, 5
	note_type 3, WHOLE
	rest
	note_type 3, EIGHTH
	note C_, 5
	note D_, 5
	note C_, 5
	note D_, 5
	rest
	note D#, 5
	rest
	note F_, 5
	note G_, 5
	rest
	note_type 3, DOTTED_HALF
	rest
	note_type 3, EIGHTH
	note C_, 5
	note D_, 5
	note C_, 5
	note D_, 5
	rest
	note D#, 5
	note F_, 5
	note G_, 5
	rest
	note E_, 5
	note C_, 5
	note G_, 4
	note_type 3, HALF
	rest
	note_type 3, EIGHTH
	note C_, 5
	note D_, 5
	note C_, 5
	note D_, 5
	rest
	note A_, 4
	note B_, 4
	note C_, 5
	note D_, 5
	rest
	note_type 1, DOTTED_HALF
	rest
	sound_ret
MusicDataEnding5_Square1:
	note_type 3, EIGHTH
	note C_, 4
	note G_, 4
	note E_, 4
	note G_, 4
	note B_, 3
	note G_, 4
	note D_, 4
	note G_, 4
	note A_, 3
	note G_, 4
	note E_, 4
	note G_, 4
	note G_, 3
	note G_, 4
	note D_, 4
	note G_, 4
	note F_, 3
	note F_, 4
	note C_, 4
	note F_, 4
	note E_, 3
	note E_, 4
	note B_, 3
	note E_, 4
	note D_, 3
	note D_, 4
	note A_, 3
	note D_, 4
	note G_, 3
	note F_, 4
	note B_, 3
	note F_, 4
	note C_, 4
	note G_, 4
	note E_, 4
	note G_, 4
	note B_, 3
	note G_, 4
	note D_, 4
	note G_, 4
	note A#, 3
	note F_, 4
	note D_, 4
	note F_, 4
	note A_, 3
	note F_, 4
	note C_, 4
	note F_, 4
	note G_, 3
	note E_, 4
	note C_, 4
	note E_, 4
	note G_, 3
	note D_, 4
	note B_, 3
	note D_, 4
	note C_, 4
	note G_, 4
	note E_, 4
	note G_, 4
	note C_, 4
	note G_, 4
	note E_, 4
	note G_, 4
	note G#, 3
	note D#, 4
	note C_, 4
	note D#, 4
	note G#, 3
	note D#, 4
	note C_, 4
	note D#, 4
	note G_, 3
	note E_, 4
	note C_, 4
	note E_, 4
	note G_, 3
	note E_, 4
	note C_, 4
	note E_, 4
	note G#, 3
	note D#, 4
	note C_, 4
	note D#, 4
	note G#, 3
	note D#, 4
	note C_, 4
	note D#, 4
	note G_, 3
	note E_, 4
	note C_, 4
	note E_, 4
	note G_, 3
	note E_, 4
	note C_, 4
	note E_, 4
	note G#, 3
	note D#, 4
	note C_, 4
	note D#, 4
	note G#, 3
	note D#, 4
	note C_, 4
	note D#, 4
	note G_, 3
	note E_, 4
	note C_, 4
	note E_, 4
	note G_, 3
	note E_, 4
	note C_, 4
	note E_, 4
	note F#, 3
	note D_, 4
	note C_, 4
	note D_, 4
	note F#, 3
	note D_, 4
	note C_, 4
	note D_, 4
	note G_, 3
	note D_, 4
	note B_, 3
	note D_, 4
	note G_, 3
	note F_, 4
	note D_, 4
	note B_, 3

MusicDataEnding5_Triangle:
	note_type 1, WHOLE
	rest
	sound_loop

MusicDataEnding5_Noise:
	note_type 1, WHOLE
	drum_rest
	sound_loop

MusicDataEnding5_DPCM:
	note_type 1, WHOLE
	rest
	sound_loop
