MusicDataEnding3:
MusicDataEnding3_Square2:
	note_type 8, WHOLE
	note C_, 4
	note C_, 4
	sound_ret

MusicDataEnding4:
MusicDataEnding4_Square2:
	note_type 8, WHOLE
	note C_, 4
	rest
	sound_ret

MusicDataEnding3_Square1:
	note_type 8, HALF
	note D#, 2
	note_type 8, HALF_TRIPLET
	note D#, 2
	note D#, 2
	note D#, 2
	note_type 8, HALF
	note D_, 2
	note_type 8, HALF_TRIPLET
	note D_, 2
	note D_, 2
	note D_, 2

MusicDataEnding4_Square1:
	note_type 8, HALF
	note C_, 2
	note_type 8, EIGHTH
	note G_, 1
	rest
	note G_, 1
	rest
	note G_, 1
	rest
	note_type 8, DOTTED_HALF
	note G_, 1

MusicDataEnding3_Triangle:
	note_type 1, HALF
	note G#, 3
	note_type 1, HALF_TRIPLET
	note G#, 3
	note G#, 3
	note G#, 3
	note_type 1, HALF
	note F_, 3
	note_type 1, HALF_TRIPLET
	note F_, 3
	note F_, 3
	note F_, 3

MusicDataEnding4_Triangle:
	note_type 1, HALF
	note E_, 3
	note_type 1, EIGHTH
	note C_, 3
	rest
	note C_, 3
	rest
	note C_, 3
	rest
	note_type 1, DOTTED_HALF
	note C_, 3

MusicDataEnding3_Noise:
	note_type 1, HALF
	drum_note Noise_DoubleSnare
	note_type 1, HALF_TRIPLET
	drum_note Noise_OWSnare
	drum_note Noise_OWSnare
	drum_note Noise_OWSnare
	note_type 1, HALF
	drum_note Noise_DoubleSnare
	note_type 1, HALF_TRIPLET
	drum_note Noise_OWSnare
	drum_note Noise_OWSnare
	drum_note Noise_OWSnare

MusicDataEnding4_Noise:
	note_type 1, HALF
	drum_note Noise_DoubleSnare
	note_type 1, QUARTER
	drum_note Noise_DoubleSnare
	drum_note Noise_DoubleSnare
	drum_rest
	note_type 1, DOTTED_HALF
	drum_note Noise_DoubleSnare

MusicDataEnding3_DPCM:
	note_type 1, HALF_TRIPLET
	note G#, 1
	rest
	rest
	note_type 1, QUARTER_TRIPLET
	note G#, 1
	rest
	note G#, 1
	rest
	note G#, 1
	rest
	note_type 1, HALF_TRIPLET
	note A#, 1
	rest
	rest
	note_type 1, QUARTER_TRIPLET
	note A#, 1
	rest
	note A#, 1
	rest
	note A#, 1
	rest

MusicDataEnding4_DPCM:
	note_type 1, HALF_TRIPLET
	note C_, 2
	rest
	rest
	note_type 1, EIGHTH
	note C_, 2
	rest
	note C_, 2
	rest
	note C_, 2
	rest
	note_type 1, HALF
	note C_, 2
	note_type 1, QUARTER
	rest
