MusicDataEnding1:
MusicDataEnding1_Square2:
	note_type 8, HALF_TRIPLET
	rest
	rest
	note_type 8, WHOLE
	note E_, 4
	note_type 8, QUARTER
	rest
	note F_, 4
	note E_, 4
	note C_, 4
	note_type 8, HALF_TRIPLET
	note D_, 4
	rest
	note E_, 4
	note_type 8, WHOLE
	note F_, 4
	note_type 8, HALF
	note D_, 4
	note_type 8, WHOLE
	note G_, 4
	note_type 8, HALF_TRIPLET
	rest
	rest
	note F_, 4
	note F_, 4
	note E_, 4
	note D_, 4
	note_type 8, WHOLE
	note E_, 4
	note_type 6, HALF
	rest
	note F_, 2
	note_type 6, WHOLE
	note E_, 3
	note_type 6, QUARTER
	rest
	note F_, 3
	note F_, 3
	note F_, 3
	note_type 6, WHOLE
	note E_, 3
	note_type 6, QUARTER
	rest
	note D#, 3
	note D#, 3
	note D#, 3
	note_type 6, WHOLE
	note D_, 3
	note_type 6, QUARTER
	rest
	note C_, 3
	note F_, 3
	note F_, 3
	note_type 6, WHOLE
	note C_, 4
	note B_, 3
	sound_ret

MusicDataEnding2:
MusicDataEnding2_Square2:
	note_type 8, WHOLE
	note E_, 4
	note_type 8, QUARTER
	rest
	note F_, 4
	note E_, 4
	note C_, 4
	note_type 8, HALF_TRIPLET
	note D_, 4
	rest
	note D_, 4
	note_type 8, WHOLE
	note G_, 4
	note_type 8, HALF
	note G_, 3
	note_type 8, WHOLE
	note D_, 4
	note_type 8, QUARTER
	rest
	note D#, 4
	note D_, 4
	note A#, 3
	note_type 8, HALF_TRIPLET
	note C_, 4
	rest
	note C_, 4
	note_type 8, WHOLE
	note F_, 4
	note_type 8, HALF
	note F_, 3
	note_type 8, WHOLE
	note C_, 4
	note_type 8, QUARTER
	rest
	note C_, 4
	note D_, 4
	note F_, 4
	note_type 8, WHOLE
	note E_, 4
	note_type 8, HALF
	note C_, 4
	note G_, 3
	note_type 8, WHOLE
	note A_, 3
	note_type 8, QUARTER
	rest
	note A_, 3
	note B_, 3
	note C_, 4
	note_type 8, WHOLE
	note A_, 3
	note_type 8, QUARTER
	rest
	note A_, 3
	note B_, 3
	note E_, 4
	sound_ret

MusicDataEnding1_Square1:
	note_type 8, HALF_TRIPLET
	rest
	rest
	note_type 8, WHOLE
	note C_, 3
	note_type 8, QUARTER
	rest
	note C_, 3
	note C_, 3
	note G_, 2
	note_type 8, HALF_TRIPLET
	note A#, 2
	rest
	note C_, 3
	note_type 8, WHOLE
	note D_, 3
	note_type 8, HALF
	note A#, 2
	note_type 8, WHOLE
	note D_, 3
	note_type 8, HALF_TRIPLET
	rest
	rest
	note D_, 3
	note D_, 3
	note C_, 3
	note A#, 2
	note_type 8, WHOLE
	note C_, 3
	note_type 6, HALF
	rest
	note B_, 2
	note_type 6, WHOLE
	note A_, 2
	note_type 6, QUARTER
	rest
	note G#, 2
	note G#, 2
	note G#, 2
	note_type 6, WHOLE
	note G_, 2
	note_type 6, QUARTER
	rest
	note F#, 2
	note F#, 2
	note F#, 2
	note_type 6, WHOLE
	note F_, 2
	note_type 6, QUARTER
	rest
	note F_, 2
	note A_, 2
	note A_, 2
	note_type 6, WHOLE
	note D_, 3
	note D_, 3

MusicDataEnding2_Square1:
	note_type 8, WHOLE
	note G_, 2
	note_type 8, QUARTER
	rest
	note A_, 2
	note G_, 2
	note E_, 2
	note_type 8, HALF_TRIPLET
	note F_, 2
	rest
	note F_, 2
	note_type 8, WHOLE
	note B_, 2
	note_type 8, HALF
	note B_, 1
	note_type 8, WHOLE
	note F_, 2
	note_type 8, QUARTER
	rest
	note G_, 2
	note F_, 2
	note D_, 2
	note_type 8, HALF_TRIPLET
	note F_, 2
	rest
	note F_, 2
	note_type 8, WHOLE
	note A_, 2
	note_type 8, HALF
	note A_, 1
	note_type 8, WHOLE
	note D#, 2
	note_type 8, QUARTER
	rest
	note D#, 2
	note F_, 2
	note G#, 2
	note_type 8, WHOLE
	note G_, 2
	note_type 8, HALF
	note E_, 2
	note C_, 2
	note_type 8, WHOLE
	note C_, 2
	note_type 8, QUARTER
	rest
	note C_, 2
	note D_, 2
	note F_, 2
	note_type 8, WHOLE
	note B_, 1
	note_type 8, QUARTER
	rest
	note B_, 1
	note D_, 2
	note G_, 2

MusicDataEnding1_Triangle:
	note_type 1, HALF_TRIPLET
	rest
	rest
	note_type 8, HALF
	note G_, 4
	note_type 1, HALF
	note G_, 4
	note_type 1, QUARTER
	rest
	note A_, 4
	note G_, 4
	note E_, 4
	note_type 1, HALF_TRIPLET
	note F_, 4
	rest
	note G_, 4
	note_type 8, HALF
	note A#, 4
	note_type 1, HALF
	note A#, 4
	note F_, 4
	note_type 8, HALF
	note A#, 4
	note_type 1, HALF
	note A#, 4
	note_type 1, HALF_TRIPLET
	rest
	rest
	note A#, 4
	note A#, 4
	note G_, 4
	note F_, 4
	note_type 8, HALF
	note G_, 4
	note_type 1, HALF
	note G_, 4
	note_type 1, HALF
	rest
	note D_, 5
	note_type 8, HALF
	note C_, 5
	note_type 1, HALF
	note C_, 5
	note_type 1, QUARTER
	rest
	note B_, 4
	note C_, 5
	note D_, 5
	note_type 8, HALF
	note C_, 5
	note_type 1, HALF
	note C_, 5
	note_type 1, QUARTER
	rest
	note B_, 4
	note C_, 5
	note D_, 5
	note_type 8, HALF
	note C_, 5
	note_type 1, HALF
	note C_, 5
	note_type 1, QUARTER
	rest
	note A_, 4
	note C_, 5
	note D_, 5
	note G_, 5
	note_type 3, QUARTER
	note G_, 4
	note C_, 5
	note D_, 5
	note_type 3, QUARTER_TRIPLET
	note G_, 5
	note A_, 5
	note G_, 5
	note A_, 5
	note G_, 5
	note A_, 5
	note G_, 5
	note A_, 5
	note G_, 5
	note A_, 5
	note G_, 5
	note A_, 5

MusicDataEnding2_Triangle:
	note_type 8, HALF
	note C_, 4
	note_type 1, HALF
	note C_, 4
	note_type 1, QUARTER
	rest
	note C_, 4
	note C_, 4
	note G_, 3
	note_type 1, HALF_TRIPLET
	note B_, 3
	rest
	note B_, 3
	note_type 3, QUARTER_TRIPLET
	note G_, 3
	note A_, 3
	note B_, 3
	note_type 3, SIXTEENTH
	note C_, 4
	note D_, 4
	note E_, 4
	note F_, 4
	note G_, 4
	note A_, 4
	note G_, 4
	note A_, 4
	note G_, 4
	note A_, 4
	note G_, 4
	note A_, 4
	note G_, 4
	note A_, 4
	note G_, 4
	note A_, 4
	note G_, 4
	note A_, 4
	note G_, 4
	note A_, 4
	note_type 8, HALF
	note A#, 3
	note_type 1, HALF
	note A#, 3
	note_type 1, QUARTER
	rest
	note A#, 3
	note A#, 3
	note F_, 3
	note_type 1, HALF_TRIPLET
	note A_, 3
	rest
	note A_, 3
	note_type 3, QUARTER_TRIPLET
	note F_, 3
	note G_, 3
	note A_, 3
	note_type 3, SIXTEENTH
	note A#, 3
	note C_, 4
	note D_, 4
	note E_, 4
	note F_, 4
	note G_, 4
	note F_, 4
	note G_, 4
	note F_, 4
	note G_, 4
	note F_, 4
	note G_, 4
	note F_, 4
	note G_, 4
	note F_, 4
	note G_, 4
	note F_, 4
	note G_, 4
	note F_, 4
	note G_, 4
	note_type 8, HALF
	note G#, 3
	note_type 3, HALF_TRIPLET
	note C_, 4
	rest
	note C_, 4
	note_type 3, QUARTER
	note C_, 5
	note_type 1, QUARTER
	note G#, 3
	note G#, 3
	note C_, 4
	note_type 8, HALF
	note C_, 4
	note_type 3, HALF_TRIPLET
	note C_, 4
	rest
	note C_, 4
	note_type 3, HALF
	note C_, 5
	note E_, 5
	note_type 8, HALF
	note F_, 3
	note_type 1, HALF
	note F_, 3
	note_type 1, QUARTER
	rest
	note F_, 3
	note F_, 3
	note A_, 3
	note_type 8, HALF
	note F_, 3
	note_type 1, HALF
	note F_, 3
	note_type 1, QUARTER
	rest
	note F_, 3
	note F_, 3
	note F_, 3

MusicDataEnding1_Noise:
	note_type 1, QUARTER_TRIPLET
	drum_rest
	note_type 1, SIXTEENTH
	drum_note Noise_OWSnare
	drum_note Noise_OWSnare
	drum_note Noise_OWSnare
	drum_note Noise_OWSnare
	note_type 1, DOTTED_HALF
	drum_note Noise_DoubleSnare
	note_type 1, SIXTEENTH
	drum_note Noise_OWSnare
	drum_note Noise_OWSnare
	drum_note Noise_OWSnare
	drum_note Noise_OWSnare
	note_type 1, DOTTED_HALF
	drum_note Noise_DoubleSnare
	note_type 1, SIXTEENTH
	drum_note Noise_OWSnare
	drum_note Noise_OWSnare
	drum_note Noise_OWSnare
	drum_note Noise_OWSnare
	note_type 1, HALF
	drum_note Noise_DoubleSnare
	drum_note Noise_DoubleSnare
	note_type 1, DOTTED_HALF
	drum_note Noise_DoubleSnare
	note_type 1, SIXTEENTH
	drum_note Noise_OWSnare
	drum_note Noise_OWSnare
	drum_note Noise_OWSnare
	drum_note Noise_OWSnare
	note_type 1, DOTTED_HALF
	drum_note Noise_DoubleSnare
	note_type 1, SIXTEENTH
	drum_note Noise_OWSnare
	drum_note Noise_OWSnare
	drum_note Noise_OWSnare
	drum_note Noise_OWSnare
	note_type 1, DOTTED_HALF
	drum_note Noise_DoubleSnare
	note_type 1, SIXTEENTH
	drum_note Noise_OWSnare
	drum_note Noise_OWSnare
	drum_note Noise_OWSnare
	drum_note Noise_OWSnare
	note_type 1, HALF
	drum_note Noise_DoubleSnare
	drum_note Noise_DoubleSnare
	note_type 1, WHOLE
	drum_note Noise_DoubleSnare

MusicDataEnding2_Noise:
	note_type 1, DOTTED_HALF
	drum_note Noise_DoubleSnare
	note_type 1, SIXTEENTH
	drum_note Noise_OWSnare
	drum_note Noise_OWSnare
	drum_note Noise_OWSnare
	drum_note Noise_OWSnare
	note_type 1, DOTTED_HALF
	drum_note Noise_DoubleSnare
	note_type 1, SIXTEENTH
	drum_note Noise_OWSnare
	drum_note Noise_OWSnare
	drum_note Noise_OWSnare
	drum_note Noise_OWSnare
	note_type 1, HALF
	drum_note Noise_DoubleSnare
	drum_note Noise_DoubleSnare
	note_type 1, DOTTED_HALF
	drum_note Noise_DoubleSnare
	note_type 1, SIXTEENTH
	drum_note Noise_OWSnare
	drum_note Noise_OWSnare
	drum_note Noise_OWSnare
	drum_note Noise_OWSnare
	note_type 1, DOTTED_HALF
	drum_note Noise_DoubleSnare
	note_type 1, SIXTEENTH
	drum_note Noise_OWSnare
	drum_note Noise_OWSnare
	drum_note Noise_OWSnare
	drum_note Noise_OWSnare
	note_type 1, DOTTED_HALF
	drum_note Noise_DoubleSnare
	note_type 1, SIXTEENTH
	drum_note Noise_OWSnare
	drum_note Noise_OWSnare
	drum_note Noise_OWSnare
	drum_note Noise_OWSnare
	note_type 1, HALF
	drum_note Noise_DoubleSnare
	drum_note Noise_DoubleSnare
	note_type 1, WHOLE
	drum_note Noise_DoubleSnare
	sound_loop

MusicDataEnding1_DPCM:
	note_type 1, HALF_TRIPLET
	rest
	rest
	note_type 1, HALF_TRIPLET
	note C_, 2
	rest
	rest
	note_type 1, QUARTER_TRIPLET
	note C_, 2
	rest
	note C_, 2
	rest
	note C_, 2
	rest
	note_type 1, EIGHTH
	note C_, 2
	rest
	note C_, 2
	rest
	note C_, 2
	rest
	note C_, 2
	rest
	note_type 1, HALF_TRIPLET
	note C_, 2
	rest
	rest
	note_type 1, QUARTER_TRIPLET
	note C_, 2
	rest
	note C_, 2
	rest
	note C_, 2
	rest
	note_type 1, EIGHTH
	note C_, 2
	rest
	note C_, 2
	rest
	note C_, 2
	rest
	note C_, 2
	rest
	note_type 1, HALF_TRIPLET
	note C_, 2
	rest
	rest
	note_type 1, QUARTER_TRIPLET
	note C_, 2
	rest
	note C_, 2
	rest
	note C_, 2
	rest
	note_type 1, EIGHTH
	note C_, 2
	rest
	note C_, 2
	rest
	note C_, 2
	rest
	note C_, 2
	rest
	note_type 1, HALF_TRIPLET
	note C_, 2
	rest
	rest
	note_type 1, QUARTER_TRIPLET
	note C_, 2
	rest
	note C_, 2
	rest
	note C_, 2
	rest
	note_type 1, EIGHTH
	note C_, 2
	rest
	note C_, 2
	rest
	note B_, 1
	rest
	note B_, 1
	rest
	note_type 1, HALF_TRIPLET
	note A_, 1
	rest
	rest
	note_type 1, QUARTER_TRIPLET
	note A_, 1
	rest
	note A_, 1
	rest
	note A_, 1
	rest
	note_type 1, EIGHTH
	note G#, 1
	rest
	note G#, 1
	rest
	note G#, 1
	rest
	note G#, 1
	rest
	note_type 1, HALF_TRIPLET
	note G_, 1
	rest
	rest
	note_type 1, QUARTER_TRIPLET
	note G_, 1
	rest
	note G_, 1
	rest
	note G_, 1
	rest
	note_type 1, EIGHTH
	note F#, 1
	rest
	note F#, 1
	rest
	note F#, 1
	rest
	note F#, 1
	rest
	note_type 1, HALF_TRIPLET
	note F_, 1
	rest
	rest
	note_type 1, QUARTER_TRIPLET
	note F_, 1
	rest
	note F_, 1
	rest
	note F_, 1
	rest
	note_type 1, EIGHTH
	note F_, 1
	rest
	note F_, 1
	rest
	note F_, 1
	rest
	note F_, 1
	rest
	note_type 1, HALF_TRIPLET
	note G_, 1
	rest
	rest
	note_type 1, QUARTER_TRIPLET
	note G_, 1
	rest
	note G_, 1
	rest
	note G_, 1
	rest
	note_type 1, EIGHTH
	note G_, 1
	rest
	note G_, 1
	rest
	note G_, 1
	rest
	note G_, 1
	rest

MusicDataEnding2_DPCM:
	note_type 1, HALF_TRIPLET
	note C_, 2
	rest
	rest
	note_type 1, QUARTER_TRIPLET
	note C_, 2
	rest
	note C_, 2
	rest
	note C_, 2
	rest
	note_type 1, EIGHTH
	note C_, 2
	rest
	note C_, 2
	rest
	note C_, 2
	rest
	note C_, 2
	rest
	note_type 1, HALF_TRIPLET
	note B_, 1
	rest
	rest
	note_type 1, QUARTER_TRIPLET
	note B_, 1
	rest
	note B_, 1
	rest
	note B_, 1
	rest
	note_type 1, EIGHTH
	note B_, 1
	rest
	note B_, 1
	rest
	note B_, 1
	rest
	note B_, 1
	rest
	note_type 1, HALF_TRIPLET
	note A#, 1
	rest
	rest
	note_type 1, QUARTER_TRIPLET
	note A#, 1
	rest
	note A#, 1
	rest
	note A#, 1
	rest
	note_type 1, EIGHTH
	note A#, 1
	rest
	note A#, 1
	rest
	note A#, 1
	rest
	note A#, 1
	rest
	note_type 1, HALF_TRIPLET
	note A_, 1
	rest
	rest
	note_type 1, QUARTER_TRIPLET
	note A_, 1
	rest
	note A_, 1
	rest
	note A_, 1
	rest
	note_type 1, EIGHTH
	note A_, 1
	rest
	note A_, 1
	rest
	note A_, 1
	rest
	note A_, 1
	rest
	note_type 1, HALF_TRIPLET
	note G#, 1
	rest
	rest
	note_type 1, QUARTER_TRIPLET
	note G#, 1
	rest
	note G#, 1
	rest
	note G#, 1
	rest
	note_type 1, EIGHTH
	note G#, 1
	rest
	note G#, 1
	rest
	note G#, 1
	rest
	note G#, 1
	rest
	note_type 1, HALF_TRIPLET
	note G_, 1
	rest
	rest
	note_type 1, QUARTER_TRIPLET
	note G_, 1
	rest
	note G_, 1
	rest
	note G_, 1
	rest
	note_type 1, EIGHTH
	note G_, 1
	rest
	note G_, 1
	rest
	note G_, 1
	rest
	note G_, 1
	rest
	note_type 1, HALF_TRIPLET
	note D_, 2
	rest
	rest
	note_type 1, QUARTER_TRIPLET
	note D_, 2
	rest
	note D_, 2
	rest
	note D_, 2
	rest
	note_type 1, EIGHTH
	note D_, 2
	rest
	note D_, 2
	rest
	note D_, 2
	rest
	note D_, 2
	rest
	note_type 1, HALF_TRIPLET
	note G_, 1
	rest
	rest
	note_type 1, QUARTER_TRIPLET
	note G_, 1
	rest
	note G_, 1
	rest
	note G_, 1
	rest
	note_type 1, EIGHTH
	note G_, 1
	rest
	note G_, 1
	rest
	note G_, 1
	rest
	note G_, 1
	rest
