MusicDataWart:
MusicDataWart_Square2:
	note_type 6, DOTTED_QUARTER
	note G_, 2
	note F#, 2
	note_type 6, DOTTED_EIGHTH
	note D_, 2
	note_type 6, SIXTEENTH
	rest
	note_type 6, DOTTED_QUARTER
	note F#, 2
	note F_, 2
	note_type 6, DOTTED_EIGHTH
	note C#, 2
	note_type 6, SIXTEENTH
	rest
	note_type 6, DOTTED_QUARTER
	note F_, 2
	note E_, 2
	note_type 6, DOTTED_EIGHTH
	note C_, 2
	note_type 6, SIXTEENTH
	rest
	note_type 6, EIGHTH
	note D#, 2
	note_type 6, HALF
	note D_, 2
	note_type 6, DOTTED_QUARTER
	rest
	note_type 6, DOTTED_QUARTER
	note A_, 2
	note G#, 2
	note_type 6, DOTTED_EIGHTH
	note E_, 2
	note_type 6, SIXTEENTH
	rest
	note_type 6, DOTTED_QUARTER
	note G#, 2
	note G_, 2
	note_type 6, DOTTED_EIGHTH
	note D#, 2
	note_type 6, SIXTEENTH
	rest
	note_type 6, DOTTED_QUARTER
	note G_, 2
	note F#, 2
	note_type 6, DOTTED_EIGHTH
	note D_, 2
	note_type 6, SIXTEENTH
	rest
	note_type 6, EIGHTH
	note F_, 2
	note_type 6, HALF
	note E_, 2
	note_type 6, DOTTED_QUARTER
	rest
	note_type 8, SIXTEENTH
	note F_, 5
	rest
	note_type 8, EIGHTH
	note F_, 5
	rest
	note F_, 5
	rest
	note F_, 5
	rest
	note_type 8, SIXTEENTH
	note F_, 5
	rest
	note F#, 5
	rest
	note_type 8, EIGHTH
	note F#, 5
	rest
	note F#, 5
	rest
	note F#, 5
	rest
	note_type 8, SIXTEENTH
	note F#, 5
	rest
	note G_, 5
	rest
	note_type 8, EIGHTH
	note G_, 5
	rest
	note G_, 5
	rest
	note G_, 5
	rest
	note_type 8, SIXTEENTH
	note G_, 5
	rest
	note G#, 5
	rest
	note_type 8, EIGHTH
	note G#, 5
	rest
	note G#, 5
	rest
	note G#, 5
	rest
	note_type 8, SIXTEENTH
	note G#, 5
	rest
	sound_ret
MusicDataWart_Square1:
	note_type 6, DOTTED_QUARTER
	note A#, 2
	note A_, 2
	note_type 6, DOTTED_EIGHTH
	note F_, 2
	note_type 6, SIXTEENTH
	rest
	note_type 6, DOTTED_QUARTER
	note A_, 2
	note G#, 2
	note_type 6, DOTTED_EIGHTH
	note E_, 2
	note_type 6, SIXTEENTH
	rest
	note_type 6, DOTTED_QUARTER
	note G#, 2
	note G_, 2
	note_type 6, DOTTED_EIGHTH
	note D#, 2
	note_type 6, SIXTEENTH
	rest
	note_type 6, EIGHTH
	note F#, 2
	note_type 6, HALF
	note F_, 2
	note_type 6, DOTTED_QUARTER
	rest
	note_type 6, DOTTED_QUARTER
	note C_, 3
	note B_, 2
	note_type 6, DOTTED_EIGHTH
	note G_, 2
	note_type 6, SIXTEENTH
	rest
	note_type 6, DOTTED_QUARTER
	note B_, 2
	note A#, 2
	note_type 6, DOTTED_EIGHTH
	note F#, 2
	note_type 6, SIXTEENTH
	rest
	note_type 6, DOTTED_QUARTER
	note A#, 2
	note A_, 2
	note_type 6, DOTTED_EIGHTH
	note F_, 2
	note_type 6, SIXTEENTH
	rest
	note_type 6, EIGHTH
	note A_, 2
	note_type 6, HALF
	note G#, 2
	note_type 6, DOTTED_QUARTER
	rest
	note_type 6, SIXTEENTH
	note F#, 2
	rest
	note F_, 2
	rest
	note F#, 2
	rest
	note F_, 2
	rest
	note F#, 2
	rest
	note F_, 2
	rest
	note F#, 2
	rest
	note F_, 2
	rest
	note G_, 2
	rest
	note F#, 2
	rest
	note G_, 2
	rest
	note F#, 2
	rest
	note G_, 2
	rest
	note F#, 2
	rest
	note G_, 2
	rest
	note F#, 2
	rest
	note G#, 2
	rest
	note G_, 2
	rest
	note G#, 2
	rest
	note G_, 2
	rest
	note G#, 2
	rest
	note G_, 2
	rest
	note G#, 2
	rest
	note G_, 2
	rest
	note A_, 2
	rest
	note G#, 2
	rest
	note A_, 2
	rest
	note G#, 2
	rest
	note A_, 2
	rest
	note G#, 2
	rest
	note A_, 2
	rest
	note G#, 2
	rest
MusicDataWart_Triangle:
	note_type 4, EIGHTH
	note G_, 2
	note A_, 2
	note A#, 2
	note G_, 2
	note A_, 2
	note A#, 2
	note G_, 2
	note A_, 2
	note G_, 2
	note A_, 2
	note A#, 2
	note G_, 2
	note A_, 2
	note A#, 2
	note G_, 2
	note A_, 2
	note G_, 2
	note A_, 2
	note A#, 2
	note G_, 2
	note A_, 2
	note A#, 2
	note G_, 2
	note A_, 2
	note G_, 2
	note A_, 2
	note A#, 2
	note G_, 2
	note A_, 2
	note A#, 2
	note G_, 2
	note A_, 2
	note F#, 2
	note G#, 2
	note A_, 2
	note F#, 2
	note G#, 2
	note A_, 2
	note F#, 2
	note G#, 2
	note F#, 2
	note G#, 2
	note A_, 2
	note F#, 2
	note G#, 2
	note A_, 2
	note F#, 2
	note G#, 2
	note F#, 2
	note G#, 2
	note A_, 2
	note F#, 2
	note G#, 2
	note A_, 2
	note F#, 2
	note G#, 2
	note F#, 2
	note G#, 2
	note A_, 2
	note F#, 2
	note G#, 2
	note A_, 2
	note F#, 2
	note G#, 2
	note F_, 2
	note_type 4, QUARTER
	note F_, 2
	note F_, 2
	note F_, 2
	note_type 4, EIGHTH
	note F_, 2
	note F#, 2
	note_type 4, QUARTER
	note F#, 2
	note F#, 2
	note F#, 2
	note_type 4, EIGHTH
	note F#, 2
	note G_, 2
	note_type 4, QUARTER
	note G_, 2
	note G_, 2
	note G_, 2
	note_type 4, EIGHTH
	note G_, 2
	note G#, 2
	note_type 4, QUARTER
	note G#, 2
	note G#, 2
	note G#, 2
	note_type 4, EIGHTH
	note G#, 2

MusicDataWart_Noise:
	note_type 1, EIGHTH
	drum_note Noise_Kick
	drum_note Noise_Kick
	drum_rest
	drum_note Noise_Kick
	drum_note Noise_Kick
	drum_rest
	drum_note Noise_Kick
	drum_note Noise_Kick
	drum_rest
	drum_note Noise_Kick
	drum_note Noise_Kick
	drum_rest
	drum_note Noise_Kick
	drum_note Noise_Kick
	drum_note Noise_Snare
	drum_rest
	drum_note Noise_Kick
	drum_note Noise_Kick
	drum_rest
	drum_note Noise_Kick
	drum_note Noise_Kick
	drum_rest
	drum_note Noise_Kick
	drum_note Noise_Kick
	drum_rest
	drum_note Noise_Kick
	drum_note Noise_Kick
	drum_rest
	drum_note Noise_Kick
	drum_note Noise_Kick
	drum_note Noise_Snare
	drum_rest
	drum_note Noise_Kick
	drum_note Noise_Kick
	drum_rest
	drum_note Noise_Kick
	drum_note Noise_Kick
	drum_rest
	drum_note Noise_Kick
	drum_note Noise_Kick
	drum_rest
	drum_note Noise_Kick
	drum_note Noise_Kick
	drum_rest
	drum_note Noise_Kick
	drum_note Noise_Kick
	drum_note Noise_Snare
	drum_rest
	drum_note Noise_Kick
	drum_note Noise_Kick
	drum_rest
	drum_note Noise_Kick
	drum_note Noise_Kick
	drum_rest
	drum_note Noise_Kick
	drum_note Noise_Kick
	drum_rest
	drum_note Noise_Kick
	drum_note Noise_Kick
	drum_rest
	drum_note Noise_Kick
	drum_note Noise_Kick
	drum_note Noise_Snare
	drum_rest
	drum_note Noise_Kick
	drum_note Noise_Kick
	drum_rest
	drum_note Noise_Kick
	drum_rest
	drum_note Noise_Kick
	drum_note Noise_Kick
	drum_note Noise_Snare
	drum_note Noise_Kick
	drum_note Noise_Kick
	drum_rest
	drum_note Noise_Kick
	drum_rest
	drum_note Noise_Kick
	drum_note Noise_Kick
	drum_note Noise_Snare
	drum_note Noise_Kick
	drum_note Noise_Kick
	drum_rest
	drum_note Noise_Kick
	drum_rest
	drum_note Noise_Kick
	drum_note Noise_Kick
	drum_note Noise_Snare
	drum_note Noise_Kick
	drum_note Noise_Kick
	drum_note Noise_Snare
	drum_note Noise_Kick
	drum_rest
	drum_note Noise_Snare
	drum_note Noise_Snare
	drum_note Noise_Snare

MusicDataWart_DPCM:
	note_type 1, DOTTED_QUARTER
	note G_, 5
	note F#, 5
	note_type 1, DOTTED_EIGHTH
	note D_, 5
	note_type 1, SIXTEENTH
	rest
	note_type 1, DOTTED_QUARTER
	note F#, 5
	note F_, 5
	note_type 1, DOTTED_EIGHTH
	note C#, 5
	note_type 1, SIXTEENTH
	rest
	note_type 1, DOTTED_QUARTER
	note F_, 5
	note E_, 5
	note_type 1, DOTTED_EIGHTH
	note C_, 5
	note_type 1, SIXTEENTH
	rest
	note_type 1, EIGHTH
	note D#, 5
	note_type 1, HALF
	note D_, 5
	note_type 1, DOTTED_QUARTER
	rest
	note_type 1, DOTTED_QUARTER
	note A_, 5
	note G#, 5
	note_type 1, DOTTED_EIGHTH
	note E_, 5
	note_type 1, SIXTEENTH
	rest
	note_type 1, DOTTED_QUARTER
	note G#, 5
	note G_, 5
	note_type 1, DOTTED_EIGHTH
	note D#, 5
	note_type 1, SIXTEENTH
	rest
	note_type 1, DOTTED_QUARTER
	note G_, 5
	note F#, 5
	note_type 1, DOTTED_EIGHTH
	note D_, 5
	note_type 1, SIXTEENTH
	rest
	note_type 1, EIGHTH
	note F_, 5
	note_type 1, HALF
	note E_, 5
	note_type 1, DOTTED_QUARTER
	rest
	note_type 1, SIXTEENTH
	note D#, 5
	rest
	note D_, 5
	rest
	note D#, 5
	rest
	note D_, 5
	rest
	note D#, 5
	rest
	note D_, 5
	rest
	note D#, 5
	rest
	note D_, 5
	rest
	note E_, 5
	rest
	note D#, 5
	rest
	note E_, 5
	rest
	note D#, 5
	rest
	note E_, 5
	rest
	note D#, 5
	rest
	note E_, 5
	rest
	note D#, 5
	rest
	note F_, 5
	rest
	note E_, 5
	rest
	note F_, 5
	rest
	note E_, 5
	rest
	note F_, 5
	rest
	note E_, 5
	rest
	note F_, 5
	rest
	note E_, 5
	rest
	note F#, 5
	rest
	note F_, 5
	rest
	note F#, 5
	rest
	note F_, 5
	rest
	note F#, 5
	rest
	note D_, 5
	note D#, 5
	note E_, 5
	note F_, 5
	note F#, 5
	rest
