MusicDataCharacterSelect1:
MusicDataCharacterSelect1_Square2:
	note_type 4, HALF_TRIPLET
	note C_, 4
	note_type 4, QUARTER
	note C_, 4
	note C_, 4
	note C_, 4
	note_type 4, QUARTER_TRIPLET
	note C_, 4
	note_type 4, HALF_TRIPLET
	note C_, 4
	note_type 4, QUARTER
	note C_, 4
	note C_, 4
	note C_, 4
	note_type 4, QUARTER_TRIPLET
	note C_, 4
	note_type 4, HALF_TRIPLET
	note C_, 4
	note_type 4, QUARTER
	note C_, 4
	note C_, 4
	note C_, 4
	note_type 4, QUARTER_TRIPLET
	note C_, 4
	note_type 4, HALF
	note E_, 4
	note D_, 4
	sound_ret

MusicDataCharacterSelect2:
MusicDataCharacterSelect2_Square2:
MusicDataCharacterSelect3:
MusicDataCharacterSelect3_Square2:
	note_type 4, QUARTER
	note E_, 4
	rest
	note E_, 4
	note_type 4, QUARTER_TRIPLET
	rest
	rest
	note E_, 4
	rest
	rest
	note C_, 4
	rest
	rest
	note A_, 3
	note_type 4, HALF
	note G_, 3
	note C_, 4
	note_type 4, QUARTER
	note C_, 4
	note_type 4, QUARTER_TRIPLET
	rest
	rest
	note C_, 4
	rest
	rest
	note A_, 3
	rest
	rest
	note F#, 3
	note_type 4, HALF
	note E_, 3
	note E_, 4
	note_type 4, QUARTER
	note E_, 4
	note_type 4, QUARTER_TRIPLET
	rest
	rest
	note E_, 4
	rest
	rest
	note C_, 4
	rest
	rest
	note A_, 3
	note_type 4, QUARTER
	note E_, 4
	note E_, 4
	note_type 4, WHOLE
	note C_, 4
	rest
	sound_ret

MusicDataCharacterSelect1_Square1:
	note_type 4, HALF_TRIPLET
	note G_, 3
	note_type 4, QUARTER
	note G_, 3
	note G_, 3
	note G_, 3
	note_type 4, QUARTER_TRIPLET
	note G_, 3
	note_type 4, HALF_TRIPLET
	note F#, 3
	note_type 4, QUARTER
	note F#, 3
	note F#, 3
	note F#, 3
	note_type 4, QUARTER_TRIPLET
	note F#, 3
	note_type 4, HALF_TRIPLET
	note F_, 3
	note_type 4, QUARTER
	note F_, 3
	note F_, 3
	note F_, 3
	note_type 4, QUARTER_TRIPLET
	note F_, 3
	note_type 4, HALF
	note B_, 3
	note F_, 3

MusicDataCharacterSelect2_Square1:
	note_type 4, QUARTER
	note G_, 3
	rest
	note G_, 3
	note_type 4, QUARTER_TRIPLET
	rest
	rest
	note G_, 3
	rest
	rest
	note E_, 3
	rest
	rest
	note E_, 3
	note_type 4, HALF
	note C_, 3
	note F#, 3
	note_type 4, QUARTER
	note F#, 3
	note_type 4, QUARTER_TRIPLET
	rest
	rest
	note F#, 3
	rest
	rest
	note D_, 3
	rest
	rest
	note D_, 3
	note_type 4, HALF
	note C_, 3
	note F_, 3
	note_type 4, QUARTER
	note F_, 3
	note_type 4, QUARTER_TRIPLET
	rest
	rest
	note F_, 3
	rest
	rest
	note D_, 3
	rest
	rest
	note B_, 2
	note_type 4, QUARTER
	note G_, 3
	note G_, 3
	note_type 4, WHOLE
	note E_, 3
	rest

MusicDataCharacterSelect3_Square1:
	note_type 4, QUARTER
	note G_, 3
	rest
	note G_, 3
	note_type 4, QUARTER_TRIPLET
	rest
	rest
	note G_, 3
	rest
	rest
	note E_, 3
	rest
	rest
	note E_, 3
	note_type 4, HALF
	note C_, 3
	note F#, 3
	note_type 4, QUARTER
	note F#, 3
	note_type 4, QUARTER_TRIPLET
	rest
	rest
	note F#, 3
	rest
	rest
	note D_, 3
	rest
	rest
	note D_, 3
	note_type 4, HALF
	note C_, 3
	note F_, 3
	note_type 4, QUARTER
	note F_, 3
	note_type 4, QUARTER_TRIPLET
	rest
	rest
	note F_, 3
	rest
	rest
	note D_, 3
	rest
	rest
	note B_, 2
	note_type 4, QUARTER
	note G_, 3
	note G_, 3
	note_type 4, WHOLE
	note E_, 3
	note_type 6, QUARTER
	rest
	note E_, 3
	note F_, 3
	note G_, 3

MusicDataCharacterSelect1_Triangle:
MusicDataCharacterSelect2_Triangle:
	note_type 1, WHOLE
	rest
	sound_loop

MusicDataCharacterSelect3_Triangle:
	note_type 1, WHOLE
	rest
	rest
	rest
	rest
	rest
	rest
	rest
	note_type 1, QUARTER
	rest
	note C_, 5
	note D_, 5
	note D#, 5

MusicDataCharacterSelect1_Noise:
	note_type 1, WHOLE
	drum_note Noise_ClosedHihat
	drum_note Noise_ClosedHihat
	drum_note Noise_ClosedHihat
	note_type 1, HALF
	drum_note Noise_ClosedHihat
	drum_note Noise_ClosedHihat

MusicDataCharacterSelect2_Noise:
MusicDataCharacterSelect3_Noise:
	note_type 1, QUARTER
	drum_note Noise_ClosedHihat
	drum_note Noise_UpperSnare
	drum_note Noise_ClosedHihat
	drum_note Noise_UpperSnare
	drum_note Noise_ClosedHihat
	drum_note Noise_UpperSnare
	drum_note Noise_ClosedHihat
	drum_note Noise_UpperSnare
	drum_note Noise_ClosedHihat
	drum_note Noise_UpperSnare
	drum_note Noise_ClosedHihat
	drum_note Noise_UpperSnare
	drum_note Noise_ClosedHihat
	drum_note Noise_UpperSnare
	drum_note Noise_ClosedHihat
	drum_note Noise_UpperSnare
	drum_note Noise_ClosedHihat
	drum_note Noise_UpperSnare
	drum_note Noise_ClosedHihat
	drum_note Noise_UpperSnare
	drum_note Noise_ClosedHihat
	drum_note Noise_UpperSnare
	drum_note Noise_ClosedHihat
	drum_note Noise_UpperSnare
	drum_note Noise_ClosedHihat
	drum_note Noise_UpperSnare
	drum_note Noise_UpperSnare
	drum_note Noise_UpperSnare
	note_type 1, QUARTER_TRIPLET
	drum_note Noise_UpperSnare
	drum_note Noise_UpperSnare
	drum_note Noise_UpperSnare
	drum_note Noise_UpperSnare
	drum_rest
	drum_note Noise_UpperSnare
	drum_note Noise_UpperSnare
	drum_rest
	drum_note Noise_UpperSnare
	drum_note Noise_UpperSnare
	drum_rest
	drum_note Noise_UpperSnare

MusicDataCharacterSelect1_DPCM:
	note_type 1, HALF_TRIPLET
	note C_, 3
	note_type 1, EIGHTH
	note C_, 3
	rest
	note C_, 3
	rest
	note C_, 3
	rest
	note_type 1, QUARTER_TRIPLET
	note C_, 3
	note_type 1, HALF_TRIPLET
	note C_, 3
	note_type 1, EIGHTH
	note C_, 3
	rest
	note C_, 3
	rest
	note C_, 3
	rest
	note_type 1, QUARTER_TRIPLET
	note C_, 3
	note_type 1, HALF_TRIPLET
	note C_, 3
	note_type 1, EIGHTH
	note C_, 3
	rest
	note C_, 3
	rest
	note C_, 3
	rest
	note_type 1, QUARTER_TRIPLET
	note C_, 3
	note_type 1, HALF_TRIPLET
	note G_, 2
	rest
	rest
	note B_, 2
	rest
	rest

MusicDataCharacterSelect2_DPCM:
MusicDataCharacterSelect3_DPCM:
	note_type 1, QUARTER
	note C_, 2
	rest
	note C_, 2
	rest
	note C_, 2
	rest
	note C_, 2
	rest
	note D_, 2
	rest
	note D_, 2
	rest
	note D_, 2
	rest
	note D_, 2
	rest
	note G_, 2
	rest
	note G_, 2
	rest
	note G_, 2
	rest
	note G_, 2
	rest
	note C_, 2
	note_type 1, DOTTED_HALF
	rest
	note_type 1, WHOLE
	rest
