MusicDataCharacterSelect4:
MusicDataCharacterSelect4_Square2:
	note_type 4, WHOLE
	rest
	rest
	rest
	rest
	rest
	rest
	rest
	rest
	sound_ret

MusicDataCharacterSelect5:
MusicDataCharacterSelect5_Square2:
	note_type 4, HALF_TRIPLET
	note E_, 4
	note D#, 4
	rest
	note G#, 4
	note_type 4, QUARTER_TRIPLET
	note E_, 4
	note_type 4, HALF_TRIPLET
	rest
	note B_, 4
	note_type 4, QUARTER_TRIPLET
	rest
	note B_, 4
	note_type 4, QUARTER
	note A_, 4
	note_type 4, HALF_TRIPLET
	note G#, 4
	note_type 4, QUARTER_TRIPLET
	note F_, 4
	note_type 4, HALF_TRIPLET
	note E_, 4
	note_type 4, QUARTER_TRIPLET
	note D_, 4
	note_type 4, QUARTER
	note C_, 4
	note C_, 4
	note_type 4, HALF_TRIPLET
	note E_, 4
	note_type 4, QUARTER_TRIPLET
	note D#, 4
	note_type 4, HALF_TRIPLET
	note E_, 4
	note_type 4, QUARTER_TRIPLET
	note A_, 4
	note_type 4, QUARTER
	note G#, 4
	note_type 4, HALF_TRIPLET
	note D_, 4
	note_type 4, QUARTER_TRIPLET
	note D#, 4
	note_type 4, HALF_TRIPLET
	note A_, 4
	note_type 4, QUARTER_TRIPLET
	note E_, 4
	note_type 4, HALF_TRIPLET
	note G_, 4
	note_type 4, QUARTER_TRIPLET
	note F#, 4
	note_type 4, HALF_TRIPLET
	note F_, 4
	note E_, 4
	rest
	note E_, 5
	note D_, 4
	note_type 4, QUARTER_TRIPLET
	rest
	note G#, 4
	rest
	rest
	note E_, 5
	note_type 4, QUARTER
	note G_, 4
	note_type 4, HALF_TRIPLET
	note F_, 4
	note_type 4, QUARTER_TRIPLET
	note D_, 5
	note_type 4, HALF_TRIPLET
	note A_, 4
	note_type 4, QUARTER_TRIPLET
	note A#, 4
	rest
	note_type 4, HALF_TRIPLET
	rest
	note B_, 4
	note_type 4, QUARTER_TRIPLET
	note A_, 4
	note_type 4, HALF_TRIPLET
	note G_, 4
	note_type 4, QUARTER_TRIPLET
	note F_, 4
	note_type 4, HALF_TRIPLET
	note A_, 3
	note_type 4, QUARTER_TRIPLET
	note B_, 3
	note_type 4, HALF_TRIPLET
	note G_, 4
	note F_, 4
	rest
	rest
	note_type 4, QUARTER_TRIPLET
	note B_, 3
	note_type 4, QUARTER
	note A_, 3
	sound_ret

MusicDataCharacterSelect4_Square1:
	note_type 6, QUARTER
	note G#, 3
	rest
	note G#, 3
	note_type 6, QUARTER_TRIPLET
	rest
	rest
	note G#, 3
	rest
	rest
	note_type 6, QUARTER
	note F#, 3
	note_type 6, QUARTER_TRIPLET
	rest
	note_type 6, QUARTER
	note F#, 3
	note G#, 3
	note_type 6, EIGHTH
	note E_, 3
	rest
	note E_, 3
	rest
	note_type 6, HALF_TRIPLET
	note E_, 3
	note D_, 3
	note_type 6, QUARTER_TRIPLET
	rest
	note_type 6, QUARTER
	note E_, 3
	note_type 6, QUARTER_TRIPLET
	rest
	note_type 6, QUARTER
	note C_, 3
	note D_, 3
	note E_, 3
	note F#, 3
	rest
	note F#, 3
	note_type 6, QUARTER_TRIPLET
	rest
	rest
	note F#, 3
	rest
	rest
	note_type 6, QUARTER
	note E_, 3
	note_type 6, QUARTER_TRIPLET
	rest
	note_type 6, QUARTER
	note D_, 3
	note C_, 3
	rest
	note D_, 3
	note E_, 3
	note F_, 3
	note F#, 3
	rest
	note_type 6, HALF_TRIPLET
	rest
	note_type 6, QUARTER
	note B_, 2
	note_type 6, QUARTER_TRIPLET
	rest

MusicDataCharacterSelect5_Square1:
	note_type 6, QUARTER
	note G#, 3
	note_type 4, HALF_TRIPLET
	note E_, 4
	note_type 4, QUARTER_TRIPLET
	note B_, 4
	note_type 6, QUARTER
	note G#, 3
	note_type 4, HALF_TRIPLET
	note E_, 5
	note_type 6, QUARTER_TRIPLET
	note G#, 3
	note_type 4, HALF_TRIPLET
	note D_, 5
	note_type 6, QUARTER
	note F#, 3
	note_type 4, QUARTER_TRIPLET
	note B_, 4
	note_type 6, QUARTER
	note F#, 3
	note G#, 3
	note_type 6, HALF_TRIPLET
	note E_, 3
	note_type 4, QUARTER_TRIPLET
	note B_, 3
	note_type 6, HALF_TRIPLET
	note E_, 3
	note_type 4, QUARTER_TRIPLET
	note D_, 4
	note_type 6, HALF_TRIPLET
	note E_, 3
	note D_, 3
	note_type 6, QUARTER_TRIPLET
	rest
	note_type 6, QUARTER
	note E_, 3
	note_type 4, QUARTER_TRIPLET
	note E_, 4
	note_type 6, QUARTER
	note C_, 3
	note D_, 3
	note E_, 3
	note F_, 3
	note_type 4, HALF_TRIPLET
	note F_, 4
	note_type 4, QUARTER_TRIPLET
	note A_, 4
	note_type 6, QUARTER
	note F_, 3
	note_type 4, HALF_TRIPLET
	note A_, 4
	note_type 6, QUARTER_TRIPLET
	note F_, 3
	note_type 4, HALF_TRIPLET
	note G_, 4
	note_type 6, QUARTER
	note E_, 3
	note_type 4, QUARTER_TRIPLET
	note F#, 4
	note_type 6, QUARTER
	note D_, 3
	note C_, 3
	note_type 4, HALF_TRIPLET
	note B_, 4
	note_type 4, QUARTER_TRIPLET
	note A#, 4
	note_type 6, QUARTER
	note D_, 3
	note E_, 3
	note F_, 3
	note F_, 3
	note_type 4, HALF_TRIPLET
	note B_, 3
	note_type 4, QUARTER_TRIPLET
	note A_, 3
	note_type 4, HALF_TRIPLET
	note F_, 4
	note_type 6, QUARTER
	note B_, 2
	note_type 4, QUARTER_TRIPLET
	note G_, 3

MusicDataCharacterSelect4_Triangle:
MusicDataCharacterSelect5_Triangle:
	note_type 1, QUARTER
	note E_, 5
	rest
	note E_, 5
	note_type 1, QUARTER_TRIPLET
	rest
	rest
	note E_, 5
	rest
	rest
	note_type 1, QUARTER
	note D_, 5
	note_type 1, QUARTER_TRIPLET
	rest
	note_type 1, QUARTER
	note D_, 5
	note E_, 5
	note_type 1, EIGHTH
	note D_, 5
	rest
	note C_, 5
	rest
	note_type 1, HALF_TRIPLET
	note C_, 5
	note B_, 4
	note_type 1, QUARTER_TRIPLET
	rest
	note_type 1, QUARTER
	note C_, 5
	note_type 1, QUARTER_TRIPLET
	rest
	note_type 1, QUARTER
	note A_, 4
	note B_, 4
	note C_, 5
	note D_, 5
	rest
	note D_, 5
	note_type 1, QUARTER_TRIPLET
	rest
	rest
	note D_, 5
	rest
	rest
	note_type 1, QUARTER
	note C_, 5
	note_type 1, QUARTER_TRIPLET
	rest
	note_type 1, QUARTER
	note B_, 4
	note A_, 4
	rest
	note B_, 4
	note C_, 5
	note C#, 5
	note D_, 5
	rest
	note_type 1, HALF_TRIPLET
	rest
	note_type 1, QUARTER
	note G_, 4
	note_type 1, QUARTER_TRIPLET
	rest

MusicDataCharacterSelect4_Noise:
MusicDataCharacterSelect5_Noise:
	note_type 1, QUARTER
	drum_note Noise_ClosedHihat
	drum_note Noise_UpperSnare
	drum_note Noise_ClosedHihat
	drum_note Noise_UpperSnare
	drum_note Noise_ClosedHihat
	drum_note Noise_UpperSnare
	drum_note Noise_ClosedHihat
	drum_note Noise_UpperSnare
	drum_note Noise_ClosedHihat
	drum_note Noise_UpperSnare
	drum_note Noise_ClosedHihat
	drum_note Noise_UpperSnare
	drum_note Noise_ClosedHihat
	drum_note Noise_UpperSnare
	drum_note Noise_ClosedHihat
	drum_note Noise_UpperSnare
	drum_note Noise_ClosedHihat
	drum_note Noise_UpperSnare
	drum_note Noise_ClosedHihat
	drum_note Noise_UpperSnare
	drum_note Noise_ClosedHihat
	drum_note Noise_UpperSnare
	drum_note Noise_ClosedHihat
	drum_note Noise_UpperSnare
	drum_note Noise_ClosedHihat
	drum_note Noise_UpperSnare
	drum_note Noise_UpperSnare
	drum_note Noise_UpperSnare
	drum_note Noise_UpperSnare
	note_type 1, HALF
	drum_note Noise_OpenHihat
	note_type 1, QUARTER
	drum_note Noise_ClosedHihat

MusicDataCharacterSelect4_DPCM:
MusicDataCharacterSelect5_DPCM:
	note_type 1, QUARTER
	note E_, 2
	rest
	note F#, 2
	rest
	note G_, 2
	rest
	note G#, 2
	note B_, 2
	note A_, 2
	rest
	note B_, 2
	rest
	note C_, 3
	rest
	note B_, 2
	note A_, 2
	note D_, 2
	rest
	note E_, 2
	rest
	note F_, 2
	rest
	note F#, 2
	note A_, 2
	rest
	note G_, 2
	note A_, 2
	note A#, 2
	note B_, 2
	note_type 1, DOTTED_HALF
	rest
