MusicDataStar:
MusicDataStar_Square2:
	note_type 5, SIXTEENTH
	note C_, 4
	rest
	note C_, 4
	rest
	note_type 5, EIGHTH
	note C_, 4
	note_type 5, SIXTEENTH
	rest
	note C_, 4
	rest
	note C_, 4
	rest
	note C_, 4
	note_type 5, EIGHTH
	note C_, 4
	rest
	note_type 5, SIXTEENTH
	note B_, 3
	rest
	note B_, 3
	rest
	note_type 5, EIGHTH
	note B_, 3
	note_type 5, SIXTEENTH
	rest
	note B_, 3
	rest
	note B_, 3
	rest
	note B_, 3
	note_type 5, EIGHTH
	note B_, 3
	rest
	sound_ret
MusicDataStar_Square1:
	note_type 5, SIXTEENTH
	note F_, 3
	rest
	note F_, 3
	rest
	note_type 5, EIGHTH
	note F_, 3
	note_type 5, SIXTEENTH
	note D_, 3
	note F_, 3
	rest
	note F_, 3
	rest
	note F_, 3
	note F_, 3
	note D_, 3
	note_type 5, EIGHTH
	note F_, 3
	note_type 5, SIXTEENTH
	note E_, 3
	rest
	note E_, 3
	rest
	note_type 5, EIGHTH
	note E_, 3
	note_type 5, SIXTEENTH
	note C_, 3
	note E_, 3
	rest
	note E_, 3
	rest
	note E_, 3
	note E_, 3
	note C_, 3
	note_type 5, EIGHTH
	note E_, 3

MusicDataStar_Triangle:
	note_type 2, SIXTEENTH
	drum_note 51
	drum_note 51
	drum_note 51
	drum_note 51
	drum_note 51
	drum_note 48
	drum_note 48
	drum_note 51
	drum_note 51
	drum_note 48
	drum_note 48
	drum_note 51
	drum_note 51
	drum_note 48
	drum_note 51
	drum_note 51
	sound_loop

MusicDataStar_Noise:
	note_type 1, QUARTER
	drum_rest
	note_type 1, DOTTED_EIGHTH
	drum_note Noise_Snare
	drum_note Noise_Snare
	note_type 1, EIGHTH
	drum_rest
	note_type 1, QUARTER
	drum_note Noise_Snare
	sound_loop

MusicDataStar_DPCM:
	note_type 1, DOTTED_EIGHTH
	note D_, 2
	note_type 1, SIXTEENTH
	rest
	note_type 1, DOTTED_EIGHTH
	note A_, 2
	note D_, 3
	note_type 1, EIGHTH
	rest
	note A_, 2
	note D_, 3
	note_type 1, DOTTED_EIGHTH
	note C_, 2
	note_type 1, SIXTEENTH
	rest
	note_type 1, DOTTED_EIGHTH
	note G_, 2
	note C_, 3
	note_type 1, EIGHTH
	rest
	note G_, 2
	note C_, 3
